<?xml version="1.0" encoding="UTF-8" standalone="no"?>
<!-- Created with Inkscape (http://www.inkscape.org/) -->
<svg
   xmlns:dc="http://purl.org/dc/elements/1.1/"
   xmlns:cc="http://web.resource.org/cc/"
   xmlns:rdf="http://www.w3.org/1999/02/22-rdf-syntax-ns#"
   xmlns:svg="http://www.w3.org/2000/svg"
   xmlns="http://www.w3.org/2000/svg"
   xmlns:sodipodi="http://sodipodi.sourceforge.net/DTD/sodipodi-0.dtd"
   xmlns:inkscape="http://www.inkscape.org/namespaces/inkscape"
   width="669.40155"
   height="185.77559"
   id="svg3434"
   sodipodi:version="0.32"
   inkscape:version="0.44.1"
   version="1.0"
   sodipodi:docbase="I:\Logos"
   sodipodi:docname="hama.svg">
  <defs
     id="defs3436" />
  <sodipodi:namedview
     id="base"
     pagecolor="#ffffff"
     bordercolor="#666666"
     borderopacity="1.0"
     inkscape:pageopacity="0.0"
     inkscape:pageshadow="2"
     inkscape:zoom="0.50663025"
     inkscape:cx="339.11258"
     inkscape:cy="104.37951"
     inkscape:document-units="px"
     inkscape:current-layer="layer1"
     width="188.92mm"
     height="52.43mm"
     inkscape:window-width="925"
     inkscape:window-height="573"
     inkscape:window-x="88"
     inkscape:window-y="116" />
  <metadata
     id="metadata3439">
    <rdf:RDF>
      <cc:Work
         rdf:about="">
        <dc:format>image/svg+xml</dc:format>
        <dc:type
           rdf:resource="http://purl.org/dc/dcmitype/StillImage" />
      </cc:Work>
    </rdf:RDF>
  </metadata>
  <g
     inkscape:label="Ebene 1"
     inkscape:groupmode="layer"
     id="layer1"
     transform="translate(-68.84347,-437.2975)">
    <g
       id="g3444"
       transform="translate(3.544247,3.537386)">
      <path
         style="fill:#221f1f;fill-rule:nonzero;stroke:none"
         d="M 710.71113,578.05629 L 710.71113,572.55176 L 714.44635,572.55176 C 716.41225,572.55176 718.37816,572.55176 718.37816,575.10744 C 718.37816,577.66311 716.41225,577.66311 714.44635,578.05629 L 710.71113,578.05629 z M 710.71113,580.21879 L 713.85658,580.21879 L 718.96793,587.88581 L 722.11337,587.88581 L 717.00202,580.21879 C 719.5577,579.62901 721.5236,578.05629 721.5236,575.10744 C 721.5236,571.37222 719.5577,569.99609 714.83953,569.99609 L 708.15545,569.99609 L 708.15545,587.88581 L 710.71113,587.88581 L 710.71113,580.21879 z M 701.47138,579.03924 C 701.47138,571.37222 707.1725,565.86769 714.44635,566.26087 C 721.5236,565.86769 726.63495,571.37222 726.63495,579.03924 C 726.63495,586.31309 721.5236,592.01421 714.44635,592.01421 C 707.1725,592.01421 701.47138,586.31309 701.47138,579.03924 z M 714.44635,594.56989 C 722.50655,594.56989 730.17358,587.88581 729.7804,579.03924 C 730.17358,569.99609 722.50655,563.31201 714.44635,563.31201 C 705.59978,563.31201 698.52253,569.99609 698.52253,579.03924 C 698.52253,587.88581 705.59978,594.56989 714.44635,594.56989"
         class="ps01"
         id="path3407" />
      <path
         style="fill:#ec1a39;fill-rule:nonzero;stroke:none"
         d="M 621.06591,561.73929 C 621.06591,561.73929 615.56138,588.27899 595.90234,588.86876 C 588.23531,588.27899 583.12396,584.34718 583.12396,577.07334 C 583.12396,563.70519 615.95456,561.73929 619.1,560.16657 L 621.06591,560.16657 L 621.06591,561.73929 z M 259.92934,588.86876 C 252.6555,588.86876 247.54415,584.34718 247.54415,577.66311 C 247.54415,564.29496 280.37474,562.13247 282.93042,560.75634 L 285.09291,560.75634 L 285.09291,561.73929 C 285.48609,561.73929 279.39179,588.86876 259.92934,588.86876 z M 728.20768,606.75849 L 654.87946,606.75849 C 655.86241,603.21986 658.61467,590.44149 661.56353,576.48357 C 662.54648,570.38927 664.11921,564.68814 665.10216,559.18361 C 667.65783,546.79842 669.82033,536.18254 670.21351,533.03709 C 671.78623,526.35302 678.07712,496.07809 616.93751,495.09514 C 553.43881,494.11219 551.86609,534.02004 554.02858,535.59277 L 595.90234,535.59277 C 603.17618,523.20757 607.30458,521.24167 615.56138,521.24167 C 622.63863,520.65189 628.73293,525.76325 628.33975,531.07119 C 627.3568,540.70412 603.17618,540.70412 584.3035,543.25979 C 569.9524,545.22569 555.01153,547.78137 545.77178,559.18361 C 542.82293,563.31201 540.66043,568.81654 539.08771,575.50062 C 539.08771,576.09039 539.08771,576.09039 538.69453,576.48357 C 533.97636,601.64714 552.45586,606.16872 546.75474,606.16872 C 546.36156,606.16872 531.0275,606.16872 531.0275,606.16872 C 531.0275,606.16872 535.94226,581.20174 540.07066,559.18361 C 543.21611,545.22569 545.77178,533.03709 546.36156,528.31892 C 548.32746,517.11327 540.66043,492.53947 506.84689,492.53947 C 475.58901,492.53947 466.34926,515.14736 465.36631,513.57464 C 463.79359,509.83942 455.14361,492.53947 432.14253,492.53947 C 404.42329,492.53947 392.62786,515.14736 393.02104,512.00192 C 393.02104,507.48034 392.03809,497.65082 392.03809,498.24059 C 392.62786,498.24059 349.57457,498.24059 349.57457,498.24059 C 349.57457,498.24059 342.89049,529.89164 336.20642,559.18361 C 331.68484,583.75741 326.57349,606.16872 326.57349,606.16872 L 319.29964,606.75849 C 319.88941,606.16872 322.83827,592.01421 325.98372,576.09039 C 327.55644,570.38927 328.53939,564.68814 329.52234,559.18361 C 332.07802,546.79842 334.24051,536.18254 334.63369,533.43027 C 336.20642,526.94279 342.30072,496.66787 280.96452,496.07809 C 217.46581,494.50537 216.28627,534.60981 218.44877,536.18254 L 260.32252,536.18254 C 267.59637,523.79734 271.72476,521.83144 279.78497,521.24167 C 287.64859,520.65189 293.15312,526.35302 292.75994,531.46437 C 291.5804,540.70412 268.18614,541.29389 248.5271,543.84956 C 234.176,545.22569 219.43172,547.78137 210.78174,559.18361 C 207.63629,563.31201 205.08062,568.81654 203.5079,576.09039 C 198.39655,602.23691 217.46581,606.16872 211.17492,606.75849 C 211.17492,606.16872 195.2511,606.16872 195.2511,606.75849 C 195.84087,606.16872 200.95222,581.20174 205.67039,559.18361 C 207.04652,549.94386 209.20902,541.29389 210.19197,535.59277 C 214.32037,516.13032 202.52494,497.25764 174.8057,497.65082 C 149.24895,497.25764 139.41943,508.85647 136.47057,511.41215 C 135.8808,512.00192 152.78757,437.29757 152.78757,437.29757 L 106.19565,437.29757 C 106.19565,437.29757 91.254777,507.87352 80.049124,559.18361 C 73.954817,588.86876 69.236647,611.86984 68.843467,611.86984 C 69.826427,612.45961 114.84563,611.86984 114.45244,611.86984 C 114.84563,611.86984 122.51265,578.05629 126.64105,559.18361 C 128.21377,552.89272 129.19672,548.96091 129.7865,547.38819 C 131.7524,542.27684 138.43647,529.49846 152.39439,529.89164 C 166.74549,529.49846 163.01027,542.27684 162.61709,545.22569 C 162.61709,545.81547 161.43755,551.51659 160.06142,559.18361 C 156.3262,579.03924 149.83872,612.45961 149.83872,612.45961 C 149.83872,612.45961 218.44877,612.45961 220.41467,612.45961 C 222.57716,612.45961 230.63737,615.99824 243.02257,615.99824 C 255.80094,615.99824 264.45092,612.45961 275.26339,605.18577 C 275.26339,605.18577 276.24634,611.47666 276.24634,612.45961 C 276.24634,612.85279 371.59269,612.45961 371.00292,612.45961 C 371.59269,612.85279 379.84949,579.03924 383.97789,559.18361 C 385.35402,552.49954 386.53356,547.38819 386.53356,545.81547 C 387.51651,541.68707 392.62786,528.90869 406.97896,528.90869 C 420.34711,528.31892 418.77439,540.70412 418.18461,545.22569 C 418.18461,546.40524 417.20166,551.90977 415.62894,559.18361 C 411.50054,579.03924 404.81647,612.45961 404.81647,612.85279 C 404.81647,612.45961 450.42544,612.45961 450.42544,612.85279 C 451.01521,612.85279 458.68224,579.03924 462.81064,559.18361 C 464.77654,552.49954 465.75949,547.38819 465.75949,545.81547 C 466.34926,541.68707 470.47766,527.92574 484.82876,527.92574 C 498.19691,527.33597 498.19691,540.70412 497.01737,545.81547 C 497.01737,546.79842 496.03441,551.90977 494.65828,559.18361 C 490.92306,578.64606 483.84581,612.45961 483.84581,612.45961 C 483.84581,612.45961 555.01153,612.45961 555.6013,612.45961 C 557.56721,612.45961 565.82401,615.60506 578.60238,615.99824 C 591.38076,615.99824 600.03073,611.86984 610.45003,605.18577 C 610.84321,604.79259 611.82616,611.47666 611.82616,612.45961 L 728.60086,611.86984 C 728.60086,611.86984 731.15653,612.45961 731.15653,609.31417 C 731.15653,606.16872 728.20768,606.75849 728.20768,606.75849"
         class="ps02"
         id="path3409" />
    </g>
  </g>
</svg>
