<?xml version="1.0" standalone="no"?>
<!DOCTYPE svg PUBLIC "-//W3C//DTD SVG 20010904//EN"
 "http://www.w3.org/TR/2001/REC-SVG-20010904/DTD/svg10.dtd">
<svg version="1.0" xmlns="http://www.w3.org/2000/svg"
 width="4000.000000pt" height="1592.000000pt" viewBox="0 0 4000.000000 1592.000000"
 preserveAspectRatio="xMidYMid meet">

<g transform="translate(0.000000,1592.000000) scale(0.100000,-0.100000)"
fill="#1C4980" stroke="none">
<path d="M7585 15904 c-27 -2 -124 -8 -215 -15 -1490 -100 -2962 -651 -4177
-1563 -538 -403 -1049 -899 -1466 -1423 -1546 -1941 -2093 -4490 -1482 -6904
274 -1079 784 -2105 1482 -2982 245 -308 613 -700 893 -952 1242 -1117 2760
-1809 4386 -2000 375 -43 499 -50 949 -50 494 0 713 15 1140 76 832 119 1679
386 2435 770 1534 777 2769 2019 3540 3559 449 898 707 1816 807 2880 25 265
25 1055 0 1320 -58 611 -151 1102 -312 1635 -746 2471 -2661 4438 -5110 5251
-634 210 -1197 324 -1905 385 -120 10 -862 20 -965 13z m5178 -4714 c496 -75
863 -252 1158 -557 233 -242 405 -579 483 -952 64 -303 60 -118 63 -2643 l3
-2298 -830 0 -830 0 -3 2088 c-3 1925 -4 2094 -20 2172 -87 427 -269 652 -622
763 -149 47 -404 68 -590 48 -360 -39 -611 -148 -821 -356 -184 -182 -292
-408 -329 -692 -13 -98 -15 -389 -15 -2069 l0 -1954 -830 0 -830 0 0 3190 0
3190 825 0 825 0 0 -467 0 -467 51 75 c193 279 425 508 672 661 223 139 495
232 797 272 175 24 187 24 455 21 190 -3 283 -9 388 -25z m-5613 -3260 l0
-3190 -825 0 -825 0 0 372 0 372 -32 -45 c-155 -218 -336 -419 -488 -542 -221
-178 -478 -303 -765 -370 -224 -53 -317 -62 -635 -62 -315 0 -419 10 -640 60
-830 186 -1342 760 -1474 1652 -35 233 -37 369 -34 2663 l3 2265 827 3 827 2
4 -2157 c3 -1936 5 -2167 20 -2248 87 -482 319 -731 761 -812 127 -24 444 -23
576 0 296 54 526 166 705 345 173 173 279 393 320 667 13 87 15 376 15 2151 0
1128 3 2054 7 2057 3 4 377 7 830 7 l823 0 0 -3190z"/>
<path d="M23358 11868 l-3 -853 -407 -3 -408 -2 0 -550 0 -550 410 0 410 0 2
-2107 3 -2108 23 -112 c103 -515 364 -824 832 -988 221 -77 440 -106 791 -106
347 0 566 24 824 89 l110 28 3 577 c2 545 1 577 -15 577 -10 0 -72 -7 -138
-15 -136 -17 -309 -19 -407 -5 -197 29 -299 126 -345 330 -16 69 -17 234 -20
1953 l-3 1877 465 0 465 0 0 555 0 555 -465 0 -465 0 0 855 0 855 -830 0 -830
0 -2 -852z"/>
<path d="M29575 11234 c-219 -16 -340 -29 -465 -50 -1388 -231 -2268 -1203
-2460 -2714 -62 -492 -43 -1077 51 -1545 172 -862 589 -1524 1229 -1950 142
-94 432 -239 602 -299 600 -215 1364 -262 2040 -125 585 118 1090 380 1478
769 411 410 686 953 815 1605 111 563 109 1261 -6 1851 -278 1433 -1207 2291
-2637 2438 -148 16 -544 28 -647 20z m420 -1349 c705 -114 1171 -733 1271
-1685 23 -219 15 -638 -15 -834 -130 -835 -573 -1398 -1206 -1531 -123 -26
-338 -31 -470 -11 -286 45 -539 176 -746 387 -268 274 -441 664 -521 1169 -20
129 -22 181 -22 475 0 364 11 476 73 730 180 734 635 1218 1226 1304 97 14
313 12 410 -4z"/>
<path d="M37105 11230 c-498 -45 -882 -221 -1202 -553 -110 -115 -212 -246
-299 -387 l-59 -95 -3 463 -2 462 -830 0 -830 0 0 -4475 0 -4475 830 0 830 0
2 1662 3 1661 54 -89 c282 -464 671 -761 1151 -878 182 -44 326 -59 555 -60
396 -1 698 67 1040 233 256 124 472 279 676 484 750 753 1103 1985 939 3274
-77 604 -271 1180 -545 1623 -190 306 -457 572 -775 770 -216 135 -566 278
-805 330 -229 49 -518 69 -730 50z m73 -1395 c550 -104 959 -601 1107 -1340
45 -225 59 -390 59 -670 0 -280 -13 -412 -61 -640 -57 -274 -189 -587 -328
-780 -324 -451 -811 -639 -1320 -510 -198 50 -381 159 -546 324 -321 323 -498
795 -540 1436 -22 340 18 733 106 1040 91 320 228 572 419 772 218 229 454
346 776 387 59 7 245 -4 328 -19z"/>
<path d="M18765 11220 c-837 -47 -1509 -321 -1912 -780 -258 -294 -416 -665
-463 -1085 -14 -129 -12 -402 4 -525 72 -535 323 -878 802 -1093 197 -89 478
-182 1536 -508 590 -182 1114 -348 1165 -369 200 -82 309 -165 364 -276 44
-88 51 -209 20 -312 -59 -197 -264 -347 -581 -428 -359 -90 -907 -92 -1255 -3
-248 63 -455 203 -548 371 -39 70 -87 204 -112 316 l-17 72 -815 0 -816 0 7
-97 c66 -941 579 -1556 1536 -1842 648 -194 1593 -243 2310 -121 783 134 1352
486 1677 1039 188 318 283 675 283 1059 0 535 -167 936 -510 1224 -162 136
-376 255 -596 331 -55 19 -593 176 -1195 347 -602 172 -1132 326 -1179 342
-235 82 -373 174 -421 281 -21 45 -24 68 -24 167 0 112 1 117 38 194 133 279
528 426 1064 396 504 -29 819 -182 963 -470 45 -91 70 -184 85 -322 l6 -58
805 0 804 0 0 83 c-1 162 -44 406 -107 595 -204 618 -698 1071 -1418 1302
-133 42 -351 94 -505 119 -273 45 -708 68 -995 51z"/>
</g>
</svg>
