<svg width="572" height="85" viewBox="0 0 572 85" fill="none" xmlns="http://www.w3.org/2000/svg">
<path opacity="0.1" d="M506.24 85C485.56 85 469.377 82.2562 457.69 76.7687C446.054 71.2303 440.237 61.4746 440.237 47.5016H477.811C477.811 52.786 480.428 56.4189 485.661 58.4006C490.895 60.3822 497.805 61.373 506.392 61.373C514.725 61.373 521.356 60.4838 526.285 58.7054C531.213 56.927 533.678 54.4627 533.678 51.3125C533.678 48.3146 531.315 46.206 526.589 44.9865C521.864 43.7671 513.277 43.1319 500.828 43.0811V21.893C513.277 21.8422 521.864 21.08 526.589 19.6065C531.315 18.133 533.678 15.9227 533.678 12.9757C533.678 9.97788 531.188 7.666 526.208 6.04005C521.28 4.41411 514.674 3.60114 506.392 3.60114C497.704 3.60114 490.768 4.61735 485.585 6.64977C480.402 8.6314 477.811 12.493 477.811 18.2346H440.237C440.237 4.4141 446.08 -5.41778 457.766 -11.261C469.504 -17.1043 485.661 -20.0259 506.24 -20.0259C527.987 -20.0259 544.246 -17.6632 555.018 -12.9378C565.841 -8.21237 571.252 -0.743185 571.252 9.46978C571.252 17.5487 567.695 23.1887 560.582 26.3898C553.468 29.5908 545.313 31.3692 536.116 31.7249C545.364 32.0806 553.519 33.6557 560.582 36.4503C567.695 39.1941 571.252 44.58 571.252 52.6081C571.252 63.1768 565.866 71.2303 555.094 76.7687C544.322 82.2562 528.038 85 506.24 85Z" fill="#FFF3D2"/>
<path opacity="0.1" d="M293.268 83.7805V60.8395C293.268 51.5919 297.435 44.3514 305.768 39.1179C314.101 33.8844 327.438 30.0735 345.781 27.6854C363.666 25.3481 374.387 23.4173 377.944 21.893C381.501 20.3687 383.279 17.9044 383.279 14.5C383.279 11.1973 381.196 8.70761 377.03 7.03086C372.914 5.30329 367.096 4.43951 359.576 4.43951C350.837 4.43951 343.774 5.63356 338.388 8.02167C333.053 10.359 330.385 13.9411 330.385 18.7682H292.811C292.811 5.96384 298.705 -3.69021 310.493 -10.194C322.332 -16.7486 338.871 -20.0259 360.11 -20.0259C381.349 -20.0259 396.846 -16.8248 406.602 -10.4226C416.357 -4.02048 421.235 3.77897 421.235 12.9757C421.235 24.2557 416.611 32.6903 407.364 38.2795C398.116 43.8179 386.252 47.4762 371.771 49.2546C358.407 51.033 348.55 52.6081 342.199 53.98C335.847 55.3011 332.672 57.0795 332.672 59.3151H420.93V83.7805H293.268Z" fill="#FFF3D2"/>
<path opacity="0.1" d="M209.833 85C188.594 85 172.817 81.7227 162.502 75.1681C152.188 68.5627 147.031 58.1465 147.031 43.9195V21.0546C147.031 6.82762 152.213 -3.56319 162.579 -10.1178C172.995 -16.7232 188.746 -20.0259 209.833 -20.0259C230.919 -20.0259 246.62 -16.7232 256.934 -10.1178C267.3 -3.56319 272.482 6.82762 272.482 21.0546V43.9195C272.482 58.1465 267.3 68.5627 256.934 75.1681C246.62 81.7227 230.919 85 209.833 85ZM209.833 60.5346C218.572 60.5346 224.923 59.0865 228.887 56.1903C232.85 53.2941 234.832 49.2038 234.832 43.9195V20.9784C234.832 15.6433 232.875 11.553 228.963 8.70761C225.05 5.86222 218.674 4.43951 209.833 4.43951C200.636 4.43951 194.132 5.83681 190.321 8.6314C186.51 11.426 184.605 15.5417 184.605 20.9784V43.9195C184.605 49.3054 186.51 53.4211 190.321 56.2665C194.183 59.1119 200.687 60.5346 209.833 60.5346Z" fill="#FFF3D2"/>
<path opacity="0.1" d="M1.20534 83.7805V60.8395C1.20534 51.5919 5.37183 44.3514 13.7048 39.1179C22.0378 33.8844 35.3756 30.0735 53.7183 27.6854C71.6037 25.3481 82.3247 23.4173 85.8815 21.893C89.4383 20.3687 91.2166 17.9044 91.2166 14.5C91.2166 11.1973 89.1334 8.70761 84.9669 7.03086C80.8512 5.30329 75.0334 4.43951 67.5134 4.43951C58.774 4.43951 51.7113 5.63356 46.3253 8.02167C40.9902 10.359 38.3226 13.9411 38.3226 18.7682H0.748047C0.748047 5.96384 6.6421 -3.69021 18.4302 -10.194C30.2691 -16.7486 46.808 -20.0259 68.0469 -20.0259C89.2858 -20.0259 104.783 -16.8248 114.539 -10.4226C124.294 -4.02048 129.172 3.77897 129.172 12.9757C129.172 24.2557 124.549 32.6903 115.301 38.2795C106.053 43.8179 94.1891 47.4762 79.708 49.2546C66.3448 51.033 56.4875 52.6081 50.1361 53.98C43.7848 55.3011 40.6091 57.0795 40.6091 59.3151H128.867V83.7805H1.20534Z" fill="#FFF3D2"/>
</svg>
