<svg width="110" height="95" viewBox="0 0 110 95" fill="none" xmlns="http://www.w3.org/2000/svg">
<path d="M17.5217 41.0634C13.9896 41.0508 10.9385 40.2342 8.36853 38.6137C5.79855 36.9933 3.81726 34.6575 2.42466 31.6064C1.03207 28.5554 0.342097 24.8966 0.354757 20.6302C0.367417 16.3512 1.06372 12.7177 2.44365 9.72998C3.83625 6.74222 5.81121 4.46976 8.36853 2.91258C10.9385 1.3554 13.9896 0.576811 17.5217 0.576811C21.0538 0.576811 24.1049 1.36173 26.6749 2.93157C29.2448 4.48875 31.2261 6.76121 32.6187 9.74897C34.0113 12.7367 34.7013 16.3638 34.6886 20.6302C34.6886 24.922 33.9923 28.5934 32.5997 31.6444C31.2071 34.6955 29.2258 37.0312 26.6559 38.6517C24.0986 40.2595 21.0538 41.0634 17.5217 41.0634ZM17.5217 32.48C19.3447 32.48 20.8386 31.5305 22.0033 29.6315C23.1807 27.7198 23.7631 24.7194 23.7504 20.6302C23.7504 17.959 23.4845 15.7751 22.9528 14.0787C22.4211 12.3822 21.6868 11.1289 20.75 10.3187C19.8132 9.49577 18.7371 9.08432 17.5217 9.08432C15.6987 9.08432 14.2111 10.0085 13.0591 11.8569C11.907 13.7052 11.3183 16.6297 11.293 20.6302C11.2803 23.3521 11.5399 25.5929 12.0716 27.3527C12.6033 29.0998 13.3376 30.3911 14.2744 31.2266C15.2239 32.0622 16.3063 32.48 17.5217 32.48ZM58.711 1.10853V40H48.1525V10.8314H47.9246L39.4171 15.9207V6.95744L48.9881 1.10853H58.711ZM15.4708 94H0.506677V55.1085H15.3189C19.3194 55.1085 22.7756 55.8871 25.6874 57.4443C28.6118 58.9888 30.8653 61.217 32.4478 64.1288C34.043 67.0279 34.8406 70.5031 34.8406 74.5543C34.8406 78.6055 34.0493 82.087 32.4668 84.9988C30.8843 87.8979 28.6435 90.126 25.7444 91.6832C22.8452 93.2277 19.4207 94 15.4708 94ZM11.0651 85.0367H15.091C17.0153 85.0367 18.6548 84.7266 20.0094 84.1062C21.3767 83.4859 22.4148 82.4161 23.1237 80.8969C23.8454 79.3777 24.2062 77.2635 24.2062 74.5543C24.2062 71.845 23.839 69.7308 23.1047 68.2116C22.3831 66.6924 21.3197 65.6226 19.9144 65.0023C18.5218 64.382 16.8127 64.0718 14.7871 64.0718H11.0651V85.0367ZM39.7257 94V55.1085H67.7549V63.616H50.2841V70.3005H66.3117V78.808H50.2841V85.4925H67.679V94H39.7257ZM109.3 69.6928H98.5899C98.5139 68.8066 98.3114 68.0027 97.9822 67.2811C97.6657 66.5595 97.2226 65.9391 96.6529 65.4201C96.0959 64.8884 95.4186 64.4832 94.621 64.2047C93.8234 63.9135 92.9182 63.768 91.9054 63.768C90.133 63.768 88.6328 64.1984 87.4048 65.0593C86.1894 65.9202 85.2653 67.1545 84.6323 68.7623C84.0119 70.3701 83.7018 72.3008 83.7018 74.5543C83.7018 76.9343 84.0183 78.9283 84.6513 80.5361C85.2969 82.1313 86.2274 83.334 87.4428 84.1442C88.6581 84.9418 90.1204 85.3406 91.8295 85.3406C92.8043 85.3406 93.6778 85.2203 94.4501 84.9798C95.2223 84.7266 95.8933 84.3658 96.463 83.8973C97.0327 83.4289 97.4948 82.8655 97.8493 82.2072C98.2164 81.5362 98.4633 80.783 98.5899 79.9474L109.3 80.0234C109.174 81.6692 108.712 83.3466 107.914 85.0557C107.116 86.7522 105.983 88.322 104.515 89.7652C103.059 91.1958 101.255 92.3479 99.1026 93.2214C96.9504 94.0949 94.4501 94.5317 91.6016 94.5317C88.0315 94.5317 84.8285 93.7658 81.9927 92.2339C79.1695 90.7021 76.935 88.4486 75.2892 85.4735C73.6561 82.4984 72.8395 78.8587 72.8395 74.5543C72.8395 70.2246 73.675 66.5785 75.3462 63.616C77.0173 60.6409 79.2708 58.3938 82.1066 56.8746C84.9424 55.3427 88.1074 54.5768 91.6016 54.5768C94.0576 54.5768 96.3174 54.9123 98.381 55.5833C100.445 56.2543 102.255 57.2354 103.812 58.5267C105.369 59.8054 106.623 61.3816 107.572 63.2552C108.522 65.1289 109.098 67.2748 109.3 69.6928Z" fill="white"/>
</svg>
