<svg width="110" height="95" viewBox="0 0 110 95" fill="none" xmlns="http://www.w3.org/2000/svg">
<path d="M65.4081 41.0634C61.876 41.0508 58.8249 40.2342 56.2549 38.6137C53.6849 36.9933 51.7037 34.6575 50.3111 31.6064C48.9185 28.5554 48.2285 24.8966 48.2412 20.6302C48.2538 16.3512 48.9501 12.7177 50.3301 9.72998C51.7227 6.74222 53.6976 4.46976 56.2549 2.91258C58.8249 1.3554 61.876 0.576811 65.4081 0.576811C68.9402 0.576811 71.9913 1.36173 74.5613 2.93157C77.1312 4.48875 79.1125 6.76121 80.5051 9.74897C81.8977 12.7367 82.5877 16.3638 82.575 20.6302C82.575 24.922 81.8787 28.5934 80.4861 31.6444C79.0935 34.6955 77.1122 37.0312 74.5423 38.6517C71.985 40.2595 68.9402 41.0634 65.4081 41.0634ZM65.4081 32.48C67.2311 32.48 68.725 31.5305 69.8897 29.6315C71.0671 27.7198 71.6495 24.7194 71.6368 20.6302C71.6368 17.959 71.3709 15.7751 70.8392 14.0787C70.3075 12.3822 69.5732 11.1289 68.6364 10.3187C67.6996 9.49577 66.6235 9.08432 65.4081 9.08432C63.5851 9.08432 62.0975 10.0085 60.9454 11.8569C59.7934 13.7052 59.2047 16.6297 59.1794 20.6302C59.1667 23.3521 59.4263 25.5929 59.958 27.3527C60.4897 29.0998 61.224 30.3911 62.1608 31.2266C63.1103 32.0622 64.1927 32.48 65.4081 32.48ZM106.597 1.10853V40H96.0389V10.8314H95.811L87.3035 15.9207V6.95744L96.8745 1.10853H106.597ZM15.887 94H0.922891V55.1085H15.7351C19.7356 55.1085 23.1918 55.8871 26.1036 57.4443C29.0281 58.9888 31.2815 61.217 32.864 64.1288C34.4592 67.0279 35.2568 70.5031 35.2568 74.5543C35.2568 78.6055 34.4655 82.087 32.883 84.9988C31.3005 87.8979 29.0597 90.126 26.1606 91.6832C23.2614 93.2277 19.8369 94 15.887 94ZM11.4813 85.0367H15.5072C17.4315 85.0367 19.071 84.7266 20.4256 84.1062C21.7929 83.4859 22.831 82.4161 23.54 80.8969C24.2616 79.3777 24.6224 77.2635 24.6224 74.5543C24.6224 71.845 24.2552 69.7308 23.521 68.2116C22.7993 66.6924 21.7359 65.6226 20.3306 65.0023C18.938 64.382 17.2289 64.0718 15.2034 64.0718H11.4813V85.0367ZM40.1419 94V55.1085H68.1711V63.616H50.7004V70.3005H66.7279V78.808H50.7004V85.4925H68.0952V94H40.1419ZM109.716 69.6928H99.0061C98.9302 68.8066 98.7276 68.0027 98.3984 67.2811C98.0819 66.5595 97.6388 65.9391 97.0691 65.4201C96.5121 64.8884 95.8348 64.4832 95.0372 64.2047C94.2396 63.9135 93.3344 63.768 92.3216 63.768C90.5492 63.768 89.049 64.1984 87.821 65.0593C86.6057 65.9202 85.6815 67.1545 85.0485 68.7623C84.4281 70.3701 84.118 72.3008 84.118 74.5543C84.118 76.9343 84.4345 78.9283 85.0675 80.5361C85.7131 82.1313 86.6436 83.334 87.859 84.1442C89.0744 84.9418 90.5366 85.3406 92.2457 85.3406C93.2205 85.3406 94.094 85.2203 94.8663 84.9798C95.6386 84.7266 96.3095 84.3658 96.8792 83.8973C97.4489 83.4289 97.911 82.8655 98.2655 82.2072C98.6326 81.5362 98.8795 80.783 99.0061 79.9474L109.716 80.0234C109.59 81.6692 109.128 83.3466 108.33 85.0557C107.533 86.7522 106.4 88.322 104.931 89.7652C103.475 91.1958 101.671 92.3479 99.5188 93.2214C97.3666 94.0949 94.8663 94.5317 92.0178 94.5317C88.4477 94.5317 85.2447 93.7658 82.4089 92.2339C79.5857 90.7021 77.3512 88.4486 75.7054 85.4735C74.0723 82.4984 73.2557 78.8587 73.2557 74.5543C73.2557 70.2246 74.0913 66.5785 75.7624 63.616C77.4335 60.6409 79.687 58.3938 82.5228 56.8746C85.3586 55.3427 88.5236 54.5768 92.0178 54.5768C94.4738 54.5768 96.7336 54.9123 98.7972 55.5833C100.861 56.2543 102.671 57.2354 104.228 58.5267C105.786 59.8054 107.039 61.3816 107.988 63.2552C108.938 65.1289 109.514 67.2748 109.716 69.6928Z" fill="white"/>
</svg>
