<svg width="107" height="24" viewBox="0 0 107 24" fill="none" xmlns="http://www.w3.org/2000/svg">
<g clip-path="url(#clip0_42_8742)">
<path d="M1.30152 20.7657L0.365956 19.4116H1.25228L1.757 20.1502L2.2494 19.4116H3.11111L2.17554 20.7411L3.2219 22.2429H2.33557L1.74469 21.3443L1.1538 22.2429H0.279785L1.30152 20.7657Z" fill="#FF2B06"/>
<path d="M6.90248 20.5688H4.14502V19.9779H6.91479V20.5688H6.90248ZM6.90248 21.7505H4.14502V21.1596H6.91479V21.7505H6.90248Z" fill="white"/>
<path d="M9.03223 18.9808H8.25669V18.3407H9.03223V18.9808ZM8.24438 19.4116H9.01992V22.243H8.24438V19.4116Z" fill="white"/>
<path d="M9.53697 19.4117H10.2756V19.8056H10.2879C10.4848 19.4855 10.8295 19.3378 11.1496 19.3378C11.9744 19.3378 12.1836 19.8056 12.1836 20.5073V22.2553H11.4081V20.655C11.4081 20.1872 11.2727 19.9533 10.9034 19.9533C10.4848 19.9533 10.3002 20.1872 10.3002 20.7658V22.2553H9.52466V19.4117H9.53697Z" fill="white"/>
<path d="M14.6949 21.886C14.498 22.1937 14.1902 22.3291 13.8209 22.3291C12.9715 22.3291 12.553 21.5905 12.553 20.815C12.553 20.0518 12.9715 19.3501 13.8086 19.3501C14.141 19.3501 14.4734 19.4978 14.658 19.7686H14.6703V18.3407H15.4458V22.2553H14.7072V21.886H14.6949ZM14.0179 19.9287C13.5132 19.9287 13.3285 20.3718 13.3285 20.8273C13.3285 21.2705 13.5255 21.7382 14.0179 21.7382C14.5349 21.7382 14.6826 21.2951 14.6826 20.8273C14.6826 20.3595 14.5226 19.9287 14.0179 19.9287Z" fill="white"/>
<path d="M16.5536 21.0243C16.5782 21.5167 16.8121 21.7383 17.2553 21.7383C17.563 21.7383 17.8216 21.5413 17.8708 21.369H18.5602C18.3386 22.0337 17.8708 22.3169 17.2307 22.3169C16.332 22.3169 15.7781 21.7013 15.7781 20.8273C15.7781 19.9779 16.369 19.3255 17.2307 19.3255C18.1909 19.3255 18.6586 20.138 18.6094 21.012H16.5536V21.0243ZM17.8216 20.5319C17.7477 20.138 17.5753 19.9287 17.206 19.9287C16.7136 19.9287 16.5659 20.3103 16.5536 20.5319H17.8216Z" fill="white"/>
<path d="M18.9419 19.4117H19.6805V19.7687H19.6928C19.8775 19.4732 20.1852 19.3255 20.5422 19.3255C21.4285 19.3255 21.8348 20.0395 21.8348 20.852C21.8348 21.6029 21.4162 22.3169 20.5914 22.3169C20.2468 22.3169 19.9267 22.1691 19.7421 21.886H19.7174V23.2278H18.9419V19.4117ZM21.0469 20.8396C21.0469 20.3965 20.8623 19.9287 20.3699 19.9287C19.8652 19.9287 19.6928 20.3842 19.6928 20.8396C19.6928 21.2951 19.8652 21.7383 20.3699 21.7383C20.8869 21.7383 21.0469 21.3074 21.0469 20.8396Z" fill="white"/>
<path d="M22.8195 21.0243C22.8441 21.5167 23.078 21.7383 23.5212 21.7383C23.8289 21.7383 24.0874 21.5413 24.1367 21.369H24.826C24.6044 22.0337 24.1367 22.3169 23.4965 22.3169C22.5979 22.3169 22.0439 21.7013 22.0439 20.8273C22.0439 19.9779 22.6348 19.3255 23.4965 19.3255C24.4567 19.3255 24.9245 20.138 24.8753 21.012H22.8195V21.0243ZM24.0874 20.5319C24.0136 20.138 23.8412 19.9287 23.4719 19.9287C22.9795 19.9287 22.8318 20.3103 22.8195 20.5319H24.0874Z" fill="white"/>
<path d="M25.22 19.4117H25.9586V19.8056H25.9709C26.1678 19.4855 26.5125 19.3378 26.8326 19.3378C27.6574 19.3378 27.8666 19.8056 27.8666 20.5073V22.2553H27.1034V20.655C27.1034 20.1872 26.968 19.9533 26.611 19.9533C26.1925 19.9533 26.0078 20.1872 26.0078 20.7658V22.2553H25.2323V19.4117H25.22Z" fill="white"/>
<path d="M30.378 21.886C30.1811 22.1937 29.8733 22.3291 29.504 22.3291C28.6546 22.3291 28.2361 21.5905 28.2361 20.815C28.2361 20.0518 28.6546 19.3501 29.4917 19.3501C29.8241 19.3501 30.1565 19.4978 30.3411 19.7686H30.3534V18.3407H31.129V22.2553H30.3903V21.886H30.378ZM29.701 19.9287C29.1963 19.9287 29.0116 20.3718 29.0116 20.8273C29.0116 21.2705 29.2086 21.7382 29.701 21.7382C30.218 21.7382 30.3657 21.2951 30.3657 20.8273C30.3657 20.3595 30.2057 19.9287 29.701 19.9287Z" fill="white"/>
<path d="M32.2367 21.0243C32.2613 21.5167 32.4952 21.7383 32.9384 21.7383C33.2461 21.7383 33.5047 21.5413 33.5539 21.369H34.2433C34.0217 22.0337 33.5539 22.3169 32.9138 22.3169C32.0151 22.3169 31.4612 21.7013 31.4612 20.8273C31.4612 19.9779 32.0521 19.3255 32.9138 19.3255C33.874 19.3255 34.3417 20.138 34.2925 21.012H32.2367V21.0243ZM33.5047 20.5319C33.4308 20.138 33.2585 19.9287 32.8892 19.9287C32.3967 19.9287 32.249 20.3103 32.2367 20.5319H33.5047Z" fill="white"/>
<path d="M34.6249 19.4117H35.3635V19.8056H35.3758C35.5727 19.4855 35.9174 19.3378 36.2375 19.3378C37.0623 19.3378 37.2715 19.8056 37.2715 20.5073V22.2553H36.496V20.655C36.496 20.1872 36.3606 19.9533 35.9913 19.9533C35.5727 19.9533 35.3881 20.1872 35.3881 20.7658V22.2553H34.6125V19.4117H34.6249Z" fill="white"/>
<path d="M38.7611 19.4115H39.3274V19.9286H38.7611V21.3319C38.7611 21.5904 38.8227 21.6643 39.0935 21.6643C39.1797 21.6643 39.2535 21.6643 39.3397 21.6397V22.2428C39.2043 22.2675 39.0443 22.2675 38.8842 22.2675C38.4041 22.2675 37.9856 22.1567 37.9856 21.5904V19.9162H37.5178V19.4115H37.9856V18.5621H38.7611V19.4115Z" fill="white"/>
<path d="M39.6106 18.3407H40.3861V22.2553H39.6106V18.3407Z" fill="white"/>
<path d="M42.294 22.6122C42.1216 23.0677 41.8508 23.2524 41.3215 23.2524C41.1614 23.2524 41.0014 23.2401 40.8414 23.2278V22.5876C40.9891 22.5999 41.1368 22.6246 41.2969 22.6122C41.5677 22.5876 41.6538 22.3045 41.5677 22.0829L40.5706 19.4239H41.4076L42.0478 21.3689H42.0601L42.6756 19.4239H43.4757L42.294 22.6122Z" fill="white"/>
<path d="M46.5213 19.2638C47.4199 19.2638 47.9862 19.8547 47.9862 20.7656C47.9862 21.6643 47.4076 22.2552 46.5213 22.2552C45.635 22.2552 45.0564 21.6643 45.0564 20.7656C45.0564 19.8547 45.635 19.2638 46.5213 19.2638ZM46.5213 21.6643C47.0506 21.6643 47.2107 21.2088 47.2107 20.7656C47.2107 20.3102 47.0506 19.8547 46.5213 19.8547C45.992 19.8547 45.8319 20.3102 45.8319 20.7656C45.8319 21.2088 45.992 21.6643 46.5213 21.6643Z" fill="white"/>
<path d="M48.2693 19.3377H49.0079V19.867H49.0202C49.1679 19.51 49.5495 19.2638 49.9188 19.2638C49.9681 19.2638 50.0419 19.2761 50.0912 19.2884V20.0147C50.0173 20.0024 49.9065 19.9901 49.808 19.9901C49.2418 19.9901 49.0448 20.3963 49.0448 20.9011V22.1813H48.2693V19.3377Z" fill="white"/>
<path d="M53.0208 21.9966C53.0208 22.4643 52.8608 23.2522 51.5559 23.2522C51.002 23.2522 50.3495 22.9937 50.3126 22.3412H51.0881C51.162 22.6367 51.3959 22.7352 51.6667 22.7352C52.0976 22.7352 52.2945 22.4397 52.2945 22.0335V21.6642H52.2699C52.0976 21.9596 51.7652 22.1073 51.4205 22.1073C50.5711 22.1073 50.2141 21.4549 50.2141 20.6794C50.2141 19.9408 50.6327 19.276 51.4328 19.276C51.8021 19.276 52.0852 19.3991 52.2822 19.7315H52.2945V19.3499H53.0331V21.9966H53.0208ZM52.2822 20.7163C52.2822 20.2608 52.1222 19.8423 51.6175 19.8423C51.1743 19.8423 50.9896 20.2239 50.9896 20.6424C50.9896 21.0487 51.1374 21.4918 51.6175 21.4918C52.0606 21.5042 52.2822 21.1225 52.2822 20.7163Z" fill="white"/>
<path d="M53.3903 20.2117C53.4395 19.4854 54.0919 19.2638 54.7198 19.2638C55.286 19.2638 55.9631 19.3869 55.9631 20.064V21.5412C55.9631 21.7997 55.9877 22.0582 56.0616 22.169H55.2737C55.2491 22.0828 55.2245 21.9843 55.2245 21.8982C54.9783 22.1567 54.6213 22.2429 54.2766 22.2429C53.7349 22.2429 53.3164 21.972 53.3164 21.3935C53.3164 20.7533 53.7965 20.5933 54.2766 20.5318C54.7567 20.4579 55.1999 20.4825 55.1999 20.1625C55.1999 19.8301 54.966 19.7808 54.6951 19.7808C54.3997 19.7808 54.2027 19.9039 54.1781 20.2117H53.3903ZM55.1875 20.7903C55.0521 20.9011 54.7813 20.9134 54.5351 20.9503C54.2889 20.9995 54.0796 21.0857 54.0796 21.3688C54.0796 21.6643 54.3012 21.7258 54.5597 21.7258C55.1629 21.7258 55.1875 21.2457 55.1875 21.0734V20.7903Z" fill="white"/>
<path d="M56.4553 19.3377H57.1939V19.7316H57.2062C57.4032 19.4115 57.7479 19.2638 58.0679 19.2638C58.8927 19.2638 59.102 19.7316 59.102 20.4333V22.1813H58.3265V20.581C58.3265 20.1132 58.191 19.8793 57.8217 19.8793C57.4032 19.8793 57.2185 20.1132 57.2185 20.6918V22.1813H56.4553V19.3377Z" fill="white"/>
<path d="M60.2838 18.9067H59.5083V18.2666H60.2838V18.9067ZM59.5083 19.3376H60.2838V22.1689H59.5083V19.3376Z" fill="white"/>
<path d="M60.6162 21.5904L62.0934 19.9285H60.727V19.3376H63.1152V19.9285L61.6379 21.5904H63.2259V22.1813H60.6285V21.5904H60.6162Z" fill="white"/>
<path d="M64.174 20.9502C64.1986 21.4426 64.4325 21.6642 64.8756 21.6642C65.1834 21.6642 65.4419 21.4672 65.4912 21.2949H66.1805C65.9589 21.9596 65.4912 22.2428 64.851 22.2428C63.9524 22.2428 63.3984 21.6273 63.3984 20.7533C63.3984 19.9039 63.9893 19.2514 64.851 19.2514C65.8112 19.2514 66.279 20.0639 66.2298 20.9379H64.174V20.9502ZM65.4296 20.4578C65.3557 20.0639 65.1834 19.8546 64.8141 19.8546C64.3217 19.8546 64.174 20.2362 64.1617 20.4578H65.4296Z" fill="white"/>
<path d="M68.5809 21.8119C68.384 22.1196 68.0762 22.255 67.7069 22.255C66.8575 22.255 66.439 21.5164 66.439 20.7409C66.439 19.9777 66.8575 19.276 67.6946 19.276C68.027 19.276 68.3593 19.4237 68.544 19.6945H68.5563V18.2666H69.3318V22.1812H68.5932V21.8119H68.5809ZM67.9039 19.8546C67.3992 19.8546 67.2145 20.2977 67.2145 20.7532C67.2145 21.1964 67.4115 21.6642 67.9039 21.6642C68.4209 21.6642 68.5686 21.221 68.5686 20.7532C68.5686 20.2854 68.4086 19.8546 67.9039 19.8546Z" fill="white"/>
<path d="M72.1631 18.9807H70.9937V18.2544H74.1943V18.9807H73.0248V22.169H72.1631V18.9807Z" fill="white"/>
<path d="M74.5391 18.2666H77.4689V18.9929H75.4008V19.83H77.2965V20.4947H75.4008V21.4549H77.5058V22.1812H74.5391V18.2666Z" fill="white"/>
<path d="M77.8628 18.2666H79.5493C80.5587 18.2666 81.3219 18.9067 81.3219 20.1993C81.3219 21.3318 80.7434 22.1812 79.5493 22.1812H77.8628V18.2666ZM78.7245 21.4549H79.4877C79.9801 21.4549 80.4602 21.1471 80.4602 20.2854C80.4602 19.4976 80.1894 18.9929 79.3277 18.9929H78.7122V21.4549H78.7245Z" fill="white"/>
<path d="M83.7838 20.9502C83.8085 21.4426 84.0423 21.6642 84.4855 21.6642C84.7933 21.6642 85.0518 21.4672 85.101 21.2949H85.7904C85.5688 21.9596 85.101 22.2428 84.4609 22.2428C83.5623 22.2428 83.0083 21.6273 83.0083 20.7533C83.0083 19.9039 83.5992 19.2514 84.4609 19.2514C85.4211 19.2514 85.8889 20.0639 85.8396 20.9379H83.7838V20.9502ZM85.0518 20.4578C84.9779 20.0639 84.8056 19.8546 84.4363 19.8546C83.9439 19.8546 83.7961 20.2362 83.7838 20.4578H85.0518Z" fill="white"/>
<path d="M87.6369 22.169H86.7752L85.8027 19.3376H86.6152L87.2184 21.2703H87.2307L87.8339 19.3376H88.6094L87.6369 22.169Z" fill="white"/>
<path d="M89.348 20.9502C89.3727 21.4426 89.6066 21.6642 90.0497 21.6642C90.3575 21.6642 90.616 21.4672 90.6652 21.2949H91.3546C91.133 21.9596 90.6652 22.2428 90.0251 22.2428C89.1265 22.2428 88.5725 21.6273 88.5725 20.7533C88.5725 19.9039 89.1634 19.2514 90.0251 19.2514C90.9853 19.2514 91.4531 20.0639 91.4038 20.9379H89.348V20.9502ZM90.6037 20.4578C90.5298 20.0639 90.3575 19.8546 89.9882 19.8546C89.4958 19.8546 89.348 20.2362 89.3357 20.4578H90.6037Z" fill="white"/>
<path d="M91.7362 19.3377H92.4748V19.7316H92.4871C92.6841 19.4115 93.0287 19.2638 93.3488 19.2638C94.1736 19.2638 94.3829 19.7316 94.3829 20.4333V22.1813H93.6073V20.581C93.6073 20.1132 93.4719 19.8793 93.1026 19.8793C92.6841 19.8793 92.4994 20.1132 92.4994 20.6918V22.1813H91.7239V19.3377H91.7362Z" fill="white"/>
<path d="M95.86 19.3377H96.4263V19.8547H95.86V21.2581C95.86 21.5166 95.9216 21.5905 96.1924 21.5905C96.2786 21.5905 96.3524 21.5905 96.4386 21.5658V22.169C96.3032 22.1937 96.1432 22.1937 95.9831 22.1937C95.503 22.1937 95.0845 22.0829 95.0845 21.5166V19.8424H94.6167V19.3254H95.0845V18.476H95.86V19.3377Z" fill="white"/>
<path d="M3.64037 5.39047H-0.00341797V2.05444H11.3096V5.39047H7.65346V15.0785H3.64037V5.39047Z" fill="#FF2B06"/>
<path d="M11.925 2.05442H22.9056V5.39045H15.9381V7.01539H22.9056V10.1175H15.9381V11.7425H22.9056V15.0785H11.925V2.05442Z" fill="#FF2B06"/>
<path d="M23.5828 2.05442H30.1687C34.5141 2.05442 36.0406 5.26735 36.0406 8.55415C36.0406 12.5549 33.9232 15.0908 29.3808 15.0908H23.5828V2.05442ZM27.5959 11.7425H29.1715C31.6705 11.7425 32.0398 9.7113 32.0398 8.4926C32.0398 7.66782 31.7813 5.39045 28.8761 5.39045H27.5959V11.7425Z" fill="#FF2B06"/>
<path d="M41.8139 10.0685L40.5952 8.03732L39.4011 10.0685H36.459L39.2534 5.96922L36.5698 2.0423H39.5119L40.5952 3.9873L41.7154 2.0423H44.6575L41.9739 5.96922L44.7683 10.0685H41.8139Z" fill="#FF2B06"/>
<path d="M48.4674 14.9986V1.84649H53.0655C53.9817 1.84649 54.7373 2.00489 55.3324 2.32171C55.9275 2.63424 56.3706 3.05595 56.6617 3.58682C56.9529 4.11342 57.0984 4.69781 57.0984 5.34C57.0984 5.90513 56.9978 6.37179 56.7966 6.73998C56.5997 7.10817 56.3385 7.3993 56.0131 7.61336C55.692 7.82743 55.3431 7.98583 54.9664 8.08858V8.21702C55.3688 8.24271 55.7734 8.38399 56.1801 8.64087C56.5868 8.89774 56.9272 9.26593 57.2012 9.74544C57.4752 10.2249 57.6122 10.8115 57.6122 11.505C57.6122 12.1644 57.4623 12.7573 57.1627 13.2839C56.863 13.8105 56.3899 14.2279 55.7434 14.5362C55.0969 14.8444 54.2557 14.9986 53.2196 14.9986H48.4674ZM50.06 13.5857H53.2196C54.26 13.5857 54.9985 13.3845 55.4352 12.9821C55.8761 12.5754 56.0966 12.083 56.0966 11.505C56.0966 11.0598 55.9832 10.6488 55.7563 10.272C55.5294 9.891 55.2061 9.58703 54.7865 9.36012C54.367 9.12893 53.8704 9.01334 53.2967 9.01334H50.06V13.5857ZM50.06 7.62621H53.0141C53.4936 7.62621 53.926 7.53202 54.3113 7.34364C54.7009 7.15526 55.0092 6.88983 55.2361 6.54732C55.4673 6.20482 55.5829 5.80238 55.5829 5.34C55.5829 4.76203 55.3816 4.27183 54.9792 3.86939C54.5768 3.46267 53.9389 3.25931 53.0655 3.25931H50.06V7.62621ZM60.7686 1.84649L64.6731 12.9179H64.8272L68.7317 1.84649H70.4014L65.5721 14.9986H63.9281L59.0989 1.84649H60.7686ZM82.4152 5.95651H80.8226C80.7284 5.49841 80.5636 5.09597 80.3281 4.74919C80.0969 4.40241 79.8143 4.11128 79.4804 3.87581C79.1507 3.63606 78.7847 3.45624 78.3823 3.33637C77.9798 3.21649 77.5602 3.15656 77.1236 3.15656C76.3272 3.15656 75.6058 3.35778 74.9594 3.76022C74.3172 4.16265 73.8056 4.75561 73.4245 5.53908C73.0478 6.32256 72.8594 7.2837 72.8594 8.42252C72.8594 9.56134 73.0478 10.5225 73.4245 11.306C73.8056 12.0894 74.3172 12.6824 74.9594 13.0848C75.6058 13.4873 76.3272 13.6885 77.1236 13.6885C77.5602 13.6885 77.9798 13.6286 78.3823 13.5087C78.7847 13.3888 79.1507 13.2111 79.4804 12.9757C79.8143 12.7359 80.0969 12.4426 80.3281 12.0959C80.5636 11.7448 80.7284 11.3424 80.8226 10.8885H82.4152C82.2953 11.5607 82.077 12.1622 81.7602 12.6931C81.4434 13.224 81.0495 13.6756 80.5785 14.0481C80.1076 14.4163 79.5789 14.6967 78.9923 14.8894C78.4101 15.082 77.7872 15.1784 77.1236 15.1784C76.0019 15.1784 75.0043 14.9044 74.1309 14.3564C73.2576 13.8084 72.5704 13.0292 72.0695 12.0188C71.5686 11.0084 71.3182 9.80965 71.3182 8.42252C71.3182 7.03539 71.5686 5.83663 72.0695 4.82625C72.5704 3.81587 73.2576 3.03668 74.1309 2.48868C75.0043 1.94067 76.0019 1.66667 77.1236 1.66667C77.7872 1.66667 78.4101 1.763 78.9923 1.95566C79.5789 2.14832 80.1076 2.43088 80.5785 2.80335C81.0495 3.17154 81.4434 3.62107 81.7602 4.15195C82.077 4.67855 82.2953 5.28007 82.4152 5.95651ZM96.0859 8.42252C96.0859 9.80965 95.8354 11.0084 95.3345 12.0188C94.8336 13.0292 94.1464 13.8084 93.2731 14.3564C92.3997 14.9044 91.4021 15.1784 90.2804 15.1784C89.1588 15.1784 88.1612 14.9044 87.2878 14.3564C86.4145 13.8084 85.7273 13.0292 85.2264 12.0188C84.7255 11.0084 84.475 9.80965 84.475 8.42252C84.475 7.03539 84.7255 5.83663 85.2264 4.82625C85.7273 3.81587 86.4145 3.03668 87.2878 2.48868C88.1612 1.94067 89.1588 1.66667 90.2804 1.66667C91.4021 1.66667 92.3997 1.94067 93.2731 2.48868C94.1464 3.03668 94.8336 3.81587 95.3345 4.82625C95.8354 5.83663 96.0859 7.03539 96.0859 8.42252ZM94.5446 8.42252C94.5446 7.2837 94.3541 6.32256 93.973 5.53908C93.5963 4.75561 93.0847 4.16265 92.4382 3.76022C91.796 3.35778 91.0768 3.15656 90.2804 3.15656C89.4841 3.15656 88.7627 3.35778 88.1163 3.76022C87.4741 4.16265 86.9625 4.75561 86.5814 5.53908C86.2047 6.32256 86.0163 7.2837 86.0163 8.42252C86.0163 9.56134 86.2047 10.5225 86.5814 11.306C86.9625 12.0894 87.4741 12.6824 88.1163 13.0848C88.7627 13.4873 89.4841 13.6885 90.2804 13.6885C91.0768 13.6885 91.796 13.4873 92.4382 13.0848C93.0847 12.6824 93.5963 12.0894 93.973 11.306C94.3541 10.5225 94.5446 9.56134 94.5446 8.42252ZM98.7638 14.9986V1.84649H106.701V3.25931H100.356V7.70327H106.29V9.11609H100.356V13.5857H106.804V14.9986H98.7638Z" fill="#F5F5F5"/>
</g>
<defs>
<clipPath id="clip0_42_8742">
<rect width="106.745" height="22.3115" fill="white" transform="translate(0 0.934425)"/>
</clipPath>
</defs>
</svg>
