<svg width="236" height="398" viewBox="0 0 236 398" fill="none" xmlns="http://www.w3.org/2000/svg">
<path opacity="0.05" d="M203.206 255.459C205.354 255.459 207.221 255.617 209.053 255.418C211.145 255.188 212.277 256.045 213.242 257.821C219.574 269.464 225.987 281.057 232.365 292.675C233.222 294.236 234.478 295.782 234.636 297.42C234.697 298.053 232.156 298.849 230.891 299.706C213.446 311.543 197.721 325.411 183.057 340.499C178.26 345.433 173.76 350.652 169.122 355.734C168.495 356.423 167.949 357.255 167.183 357.734C166.668 358.056 165.637 358.148 165.209 357.836C164.846 357.571 164.928 356.566 164.999 355.908C165.04 355.54 165.443 355.198 165.719 354.882C183.664 334.197 203.287 315.339 225.814 299.639C227.13 298.721 228.493 297.874 230.023 296.874C223.676 285.445 217.39 274.113 211.012 262.627C210.201 263.056 209.573 263.286 209.063 263.668C190.21 277.776 171.536 292.114 154.688 308.635C131.273 331.595 111.17 357 97.4194 387.027C96.1132 389.879 95.0723 392.854 93.9447 395.782C93.46 397.043 92.8375 398.441 91.317 397.634C90.7201 397.318 90.317 395.451 90.6742 394.685C93.71 388.216 93.4549 381.353 93.6233 374.47C93.9294 362.076 94.4805 349.683 95.0928 337.3C95.2254 334.616 96.1081 331.973 96.5112 329.289C96.6694 328.233 96.6745 327.069 96.3989 326.049C93.5161 315.446 89.6537 305.216 84.6075 295.44C83.9391 294.149 83.1278 293.966 81.8063 293.91C76.8112 293.695 71.7497 293.726 66.8515 292.858C55.5039 290.853 48.5954 283.098 46.7025 271.786C44.784 260.331 42.8451 248.846 40.1154 237.565C36.5846 222.972 32.5129 208.492 28.1913 194.114C25.5075 185.179 25.2574 176.235 28.6862 167.893C31.9058 160.051 29.0178 154.56 24.6554 148.871C24.14 148.198 23.6196 147.524 23.1043 146.851C20.4511 143.397 19.7265 139.748 21.7062 135.667C24.0482 130.835 24.7676 125.595 24.9564 120.309C25.1758 114.181 22.1859 109.614 17.3948 106.068C9.4811 100.216 3.87367 92.6643 1.36333 83.1179C-1.64703 71.6785 0.455119 60.9126 6.41462 50.7999C13.0017 39.6309 22.793 31.8193 33.6201 25.2271C43.9013 18.9717 54.7998 14.2163 66.7239 11.7417C72.2395 10.5988 77.4949 8.14456 82.8472 6.22609C100.848 -0.228327 119.313 -1.37125 138.105 1.45033C153.744 3.79739 167.918 9.59871 179.704 20.3085C183.301 23.579 185.95 27.8854 189.144 31.6254C189.95 32.5693 191.072 33.5541 192.22 33.8449C211.956 38.8349 224.691 51.2489 230.921 70.4182C238.309 93.1388 237.519 115.788 229.319 138.111C227.375 143.397 224.135 148.203 221.548 153.259C221.171 153.999 220.824 154.969 220.972 155.729C224.503 173.964 219.819 189.761 206.69 202.864C204.134 205.415 203.063 207.834 203.114 211.446C203.328 225.977 203.2 240.519 203.2 255.453L203.206 255.459ZM141.508 201.757C141.299 201.68 141.085 201.599 140.876 201.522C137.534 206.471 134.426 211.533 133.355 217.594C133.222 218.344 133.238 219.191 132.88 219.814C132.564 220.36 131.814 220.656 131.258 221.059C130.942 220.533 130.324 219.982 130.36 219.482C130.467 217.885 130.707 216.273 131.1 214.722C133.233 206.308 138.161 199.502 143.927 193.302C148.259 188.639 153.162 184.501 157.479 179.827C166.428 170.138 167.729 158.8 163.928 146.575C163.127 143.999 161.341 142.504 158.77 141.386C149.412 137.315 142.151 130.972 139.452 120.753C138.274 116.283 137.896 111.563 137.534 106.925C136.748 96.787 133.926 87.7304 125.263 81.4239C125.12 81.3219 125.105 81.0514 124.967 80.7045C125.543 80.7555 125.977 80.7351 126.375 80.8423C136.83 83.5924 146.009 88.557 152.922 97.0115C157.004 102.002 160.647 107.349 164.51 112.522C170.959 121.166 178.98 127.319 190.072 128.503C191.776 128.687 193.516 128.528 195.241 128.528C195.231 128.278 195.215 128.028 195.205 127.778C194.547 127.646 193.889 127.426 193.225 127.391C182.235 126.773 174 121.304 167.591 112.732C164.132 108.104 160.902 103.308 157.489 98.6493C152.698 92.1082 146.861 86.8069 139.488 83.2097C128.839 78.0156 117.579 76.1481 105.848 76.5053C104.486 76.5461 103.124 76.5104 101.761 76.5104C102.756 75.6736 103.792 75.393 104.833 75.1277C112.747 73.1123 120.069 69.8468 126.559 64.8312C136.896 56.841 140.126 43.4423 134.432 31.6968C127.559 17.5124 110.563 10.313 93.5723 11.7672C105.43 14.7674 115.073 20.4921 120.104 31.7172C125.227 43.1515 122.482 53.8561 115.609 63.8822C116.16 63.7087 116.573 63.4791 116.931 63.1781C127.742 54.1623 130.11 34.3653 122.064 24.426C121.681 23.9566 121.701 23.1607 121.533 22.5127C122.247 22.6708 123.222 22.5943 123.625 23.0382C125.232 24.7883 126.742 26.6404 128.146 28.5589C136.819 40.4473 135.212 57.6472 120.977 66.4844C112.594 71.6836 103.45 74.1174 93.8937 75.5665C93.3886 75.643 92.8631 75.5767 92.3426 75.5767C93.1386 74.7093 93.9753 74.3776 94.8274 74.0715C101.777 71.5561 108.109 68.2549 112.981 62.3362C121.16 52.402 122.217 38.4166 115.033 28.0231C110.782 21.8749 104.537 18.4002 97.6898 16.0633C91.6589 14.0071 85.4239 12.8285 78.2704 14.2061C79.4848 14.3694 79.9848 14.4204 80.4848 14.502C90.8068 16.1909 100.022 20.1758 107.537 27.6252C116.788 36.794 118.176 50.9733 110.639 60.8667C104.828 68.4998 96.899 72.5714 87.4444 73.7603C86.9393 73.8215 86.4137 73.6786 85.8933 73.6327C86.6637 72.6684 87.572 72.3367 88.4393 71.9183C93.0927 69.6733 98.0521 67.8824 102.318 65.0455C112.4 58.3462 115.339 46.2996 109.966 35.6358C107.9 31.5386 104.91 28.2477 101.006 25.8343C101.935 27.3905 103.108 28.7477 104.073 30.2427C111.359 41.5341 110.41 55.346 99.3175 63.4077C95.0009 66.5456 89.8425 68.6477 84.8575 70.7091C81.5716 72.0663 77.9133 72.5153 74.4233 73.3725C85.5259 64.9282 89.5619 54.5143 84.3524 41.4626C81.3114 33.8398 71.9793 27.5333 65.5555 28.0589C77.648 33.2377 86.0055 40.8861 83.8677 55.3715C82.6941 63.3311 74.3111 72.5765 66.9892 74.0511C71.7701 69.3366 75.3162 64.2393 75.6632 57.5604C76.0101 50.8968 73.5967 45.2639 69.02 40.5034C61.79 32.9826 49.2791 30.1661 42.6257 33.6051C43.5543 33.6051 44.3911 33.6051 45.233 33.6051C54.6672 33.5643 62.7696 36.6767 68.8771 44.0342C72.4844 48.3814 74.158 53.4326 73.3212 59.2034C72.6732 63.6832 70.5813 67.4691 67.6474 70.6938C61.8155 77.1023 59.0194 84.6027 58.6674 93.1439C58.5092 96.9604 58.4225 100.787 58.101 104.594C58.0347 105.354 57.0652 106.037 56.5142 106.752C56.1315 106.017 55.3917 105.272 55.4121 104.548C55.6366 96.9145 55.7693 89.2713 57.8357 81.8117C58.4837 79.4697 58.8919 76.99 58.9174 74.5664C58.9531 71.3162 56.1621 68.0967 53.5191 67.7701C57.1214 71.2142 58.101 74.0562 56.5652 76.6073C52.9171 72.551 48.3454 71.5714 42.692 73.6327C36.5387 75.8777 30.9108 82.0158 30.7986 85.9956C33.0895 83.6893 35.4825 80.7708 38.3755 78.5003C42.0287 75.6277 46.2483 73.7347 51.1313 74.6582C51.9731 74.8164 52.7079 75.5154 53.4936 75.9645C53.3916 76.1839 53.2844 76.3981 53.1824 76.6176C44.1717 76.6176 37.4928 80.7198 33.9569 88.8121C32.1354 92.9807 31.518 97.7717 30.9057 102.354C29.6097 112.022 28.8393 121.763 27.5229 131.432C26.7167 137.34 26.4667 137.228 32.1915 138.958C36.3295 140.208 40.5338 141.391 44.4625 143.167C50.5853 145.932 54.1365 152.025 53.5344 158.076C53.1824 161.622 52.6313 165.153 51.968 168.658C49.8251 180.011 47.5443 191.333 45.4677 202.696C45.2483 203.895 45.6361 205.752 46.4678 206.492C49.6618 209.344 56.0193 206.992 56.7234 202.823C58.5245 192.195 60.1419 181.531 62.0604 170.924C63.1625 164.842 64.2085 158.673 66.178 152.851C68.4944 146.004 73.6427 141.8 81.0767 141.009C89.6894 140.095 98.3072 139.243 106.935 138.483C109.884 138.223 112.905 137.947 115.818 138.294C123.365 139.187 129.595 143.397 136.039 146.973C136.758 147.371 137.12 148.422 137.646 149.172C136.692 149.376 135.687 149.871 134.789 149.729C130.355 149.019 125.967 147.958 121.518 147.397C118.946 147.075 116.283 147.468 113.655 147.54L113.563 148.402C115.073 149.198 116.686 149.851 118.079 150.815C120.615 152.576 122.87 154.79 125.523 156.336C129.309 158.54 133.508 159.693 137.967 159.341C142.32 158.999 145.917 157.346 147.58 152.984C149.213 148.703 147.325 145.376 144.33 142.509C142.488 140.748 140.483 139.162 138.575 137.473C131.579 131.268 126.839 123.742 126.181 114.262C125.849 109.476 126.365 104.624 126.589 99.8024C126.89 93.399 125.258 87.664 120.727 83.0005C119.283 81.5107 117.492 80.3575 115.619 78.8523C119.283 78.837 121.87 80.2963 123.962 82.8322C128.911 88.8223 130.156 95.7818 129.018 103.216C127.008 116.365 131.151 127.125 141.11 135.789C143.223 137.631 145.34 139.488 147.289 141.499C150.596 144.902 152.142 148.984 150.565 153.632C148.988 158.28 145.427 160.938 140.682 161.892C134.942 163.046 129.589 161.744 124.416 159.183C120.584 157.285 116.625 155.642 112.721 153.882C112.624 154.086 112.532 154.295 112.436 154.499C116.058 156.668 119.706 158.795 123.278 161.051C123.829 161.403 124.406 162.469 124.247 162.989C124.064 163.586 123.12 164.01 122.441 164.387C121.615 164.852 120.569 165.015 119.88 165.612C113.027 171.531 105.338 173 96.848 169.959C95.2764 169.398 93.8937 168.306 92.4243 167.454C92.4753 167.025 92.5263 166.597 92.5773 166.168C101.261 168.781 109.889 171.01 117.079 163.428C116.017 163.464 114.966 163.658 114.063 164.132C108.731 166.949 103.185 167.51 97.5878 165.291C93.8733 163.816 90.3119 163.03 86.5311 164.801C86.3117 164.903 85.929 164.648 85.48 164.52C86.2352 160.897 88.7914 158.755 91.3222 156.555C87.6332 157.469 85.179 159.877 83.2146 162.943C82.7044 163.739 82.0002 164.408 81.3829 165.132C81.1584 164.964 80.9339 164.791 80.7094 164.622C80.8012 160.607 83.6738 157.913 86.0821 154.469C82.4492 152.928 79.0919 151.499 75.7958 150.101C75.9234 149.917 76.1428 149.591 76.5612 148.973C75.8162 149.152 75.4846 149.198 75.1733 149.315C70.219 151.188 68.0556 155.331 67.1678 160.056C64.7748 172.822 62.7696 185.659 60.3868 198.425C59.6011 202.634 58.3816 206.808 56.8765 210.813C56.2897 212.38 55.958 213.528 57.0754 214.666C58.55 216.176 60.2185 217.497 61.79 218.916C64.6269 221.482 63.9176 226.743 60.5603 227.875C58.9684 225.559 61.54 221.855 57.7541 219.742C57.6469 222.166 57.6673 224.197 57.4122 226.187C57.3051 227.039 56.6111 227.809 56.1825 228.62C55.5754 227.799 54.5702 227.039 54.4427 226.151C54.162 224.232 54.2437 222.248 54.3406 220.299C54.4171 218.87 53.764 218.406 52.565 217.727C49.5087 215.987 46.4473 214.115 43.8094 211.813C41.493 209.793 40.7787 206.997 41.4471 203.691C43.5696 193.2 45.4167 182.659 47.3709 172.138C47.5801 171.02 47.7841 169.903 48.0393 168.51C42.3145 170.23 37.5744 169.291 33.3701 165.005C32.8854 166.923 32.4823 168.536 32.069 170.148C29.8903 178.577 30.0128 186.792 32.9721 195.17C36.105 204.043 38.5132 213.181 41.0185 222.263C42.4369 227.401 43.4166 232.656 44.7636 238.606C46.0341 237.555 47.0545 236.942 47.7586 236.075C48.9322 234.631 49.8404 232.973 50.9833 231.498C52.2793 229.83 53.9069 229.238 55.9019 230.401C57.453 231.304 59.0194 231.575 60.7185 230.646C63.4584 229.146 66.2953 229.294 69.0608 230.57C71.6783 231.779 74.2243 233.156 76.8316 234.391C82.0053 236.835 86.7658 240.83 93.2253 238.539C93.9345 238.289 95.3377 239.371 96.0877 240.152C96.4347 240.514 96.2765 242.034 95.8581 242.325C95.0826 242.861 93.9601 242.943 92.9651 243.096C91.8171 243.274 90.5721 243.111 89.5057 243.478C85.5004 244.866 81.689 244.703 77.9388 242.652C76.8316 242.045 75.5968 241.647 74.3876 241.259C71.7191 240.397 69.0404 240.315 66.428 241.494C63.9074 242.631 62.7798 244.938 63.1829 247.774C63.5707 250.504 65.2494 251.984 67.8311 251.907C71.3568 251.805 74.8672 251.229 78.3878 250.943C79.1429 250.882 79.9338 251.173 80.7042 251.3C80.2501 252.004 79.8828 252.785 79.3164 253.377C78.9337 253.775 78.2704 253.913 77.7296 254.152C73.8876 255.846 69.8516 256.152 65.7341 255.78C64.2748 255.647 63.1064 255.816 62.3972 257.382C60.0093 262.653 58.351 268.087 59.4735 273.914C61.2236 283.026 66.9076 290.164 77.6888 290.042C83.2146 289.981 88.5363 289.287 93.5723 286.991C108.481 280.184 123.339 273.271 138.289 266.571C140.774 265.459 141.585 264.092 141.554 261.444C141.437 249.54 141.524 237.636 141.534 225.733C141.539 217.747 141.534 209.757 141.534 201.772L141.508 201.757ZM177.225 200.553C177.781 200.864 178 200.91 178.046 201.022C180.689 207.711 185.2 209.783 192.103 207.471C197.348 205.716 201.435 202.201 205.17 198.369C215.732 187.532 219.64 174.408 217.467 159.55C216.518 153.086 210.9 145.922 201.41 147.468C194.052 148.667 189.485 153.382 186.695 159.841C185.057 163.632 184.215 167.77 182.995 171.745C182 174.985 180.133 177.541 176.975 178.939C173.061 180.669 170.643 179.092 170.602 174.837C170.551 168.714 170.602 162.591 170.479 156.474C170.377 151.57 169.245 146.963 166.234 143.458C166.898 147.269 167.923 151.377 168.28 155.545C169.163 165.949 166.479 175.26 158.882 182.781C156.586 185.052 154.234 187.276 151.785 189.379C146.687 193.756 144.218 199.267 144.228 205.956C144.259 224.324 144.264 242.688 144.294 261.056C144.294 261.745 144.412 262.439 144.504 263.382C149.172 260.806 153.509 258.474 157.785 256.035C166.898 250.841 172.173 242.851 173.648 232.626C174.98 223.391 175.602 214.053 176.561 204.762C176.704 203.405 176.98 202.058 177.22 200.553H177.225ZM107.889 359.301C108.41 358.51 108.731 358.035 109.037 357.546C118.048 343.264 128.503 330.075 140.003 317.758C155.06 301.64 171.597 287.108 189.011 273.567C189.797 272.954 190.47 271.653 190.475 270.674C190.567 252.989 190.547 235.299 190.552 217.615C190.552 216.457 190.552 215.298 190.552 214.196C185.689 213.645 185.751 213.65 185.439 217.951C185.077 222.952 184.817 227.972 184.118 232.932C182.133 247.086 174.689 258.147 163.642 266.73C152.509 275.383 140.978 283.516 129.651 291.915C120.594 298.624 112.058 305.9 106.012 315.579C102.379 321.391 99.2562 327.437 103.221 334.6C103.45 333.901 103.624 333.269 103.864 332.656C105.435 328.631 106.604 324.386 108.67 320.635C115.237 308.716 125.849 300.629 136.335 292.491C136.845 292.093 137.927 292.44 138.748 292.44C138.968 292.858 139.187 293.282 139.406 293.7C138.544 294.236 137.615 294.685 136.835 295.323C134.34 297.369 131.855 299.44 129.442 301.589C123.283 307.079 117.41 312.793 112.604 319.605C103.95 331.881 105.45 345.249 107.894 359.291L107.889 359.301ZM99.2818 321.37C99.7154 320.896 99.9399 320.743 100.032 320.533C104.313 310.681 111.298 302.879 119.574 296.4C131.809 286.817 144.514 277.842 156.943 268.505C166.071 261.648 174.52 254.004 178.317 242.861C180.322 236.988 181.204 230.697 182.235 224.533C182.807 221.11 182.633 217.564 182.796 214.079C182.511 214.002 182.22 213.926 181.934 213.849C181.633 214.405 181.189 214.931 181.051 215.528C180.725 216.931 180.607 218.38 180.296 219.788C178.704 226.988 177.597 234.345 175.332 241.325C172.383 250.412 165.403 256.55 157.882 262.046C145.529 271.067 133.151 280.057 120.895 289.2C113.012 295.078 105.808 301.696 101.205 310.594C99.5522 313.788 97.945 317.156 99.2869 321.37H99.2818ZM45.6514 22.4463C45.7075 22.5994 45.7636 22.7525 45.8198 22.9055C46.6055 22.7065 47.3913 22.5025 48.177 22.3035C58.7541 19.6248 69.3618 19.2829 79.842 22.5688C89.1996 25.5026 96.4194 31.0896 99.9093 40.6157C102.307 47.1619 102.384 53.6674 98.945 60.0759C100.455 58.7237 101.869 57.3512 102.828 55.7134C107.236 48.1875 106.762 40.5136 102.568 33.1816C96.4347 22.4769 86.4035 17.7573 74.6223 16.4664C65.831 15.5072 57.4224 17.6042 49.2842 20.8493C48.0597 21.3391 46.8657 21.9157 45.6616 22.4514L45.6514 22.4463ZM45.7024 242.386C45.8963 243.631 45.9524 244.05 46.0238 244.463C47.626 253.729 49.1873 263.005 50.8557 272.26C51.7384 277.164 53.8151 281.48 57.8714 284.588C59.1113 285.537 60.5297 286.261 61.8665 287.088C54.8866 277.057 54.5345 266.903 59.6266 256.612C57.0857 255.209 54.7131 253.902 52.3456 252.596C52.3711 252.356 52.4017 252.117 52.4272 251.877C52.963 251.703 53.5038 251.377 54.0396 251.387C55.4682 251.412 56.8969 251.576 58.3204 251.698C59.8511 251.831 60.4889 251.321 60.2134 249.642C59.9787 248.234 60.2542 246.744 60.0246 245.336C59.8562 244.29 59.5093 243.004 58.7694 242.371C55.9325 239.948 53.6569 240.565 51.6517 243.866C49.7945 243.402 48.0035 242.958 45.7024 242.381V242.386ZM137.83 55.1674C138.08 55.4226 138.33 55.6726 138.58 55.9277C139.024 55.1266 139.406 54.2847 139.917 53.5296C142.687 49.4273 144.483 44.9628 144.544 39.9881C144.677 28.8293 139.442 20.5279 130.442 14.3796C122.206 8.75684 112.839 7.04246 103.103 6.84347C96.9245 6.71591 90.8578 7.47106 84.4085 9.64464C85.2759 9.76709 85.5259 9.85383 85.7657 9.82832C86.3576 9.7722 86.9393 9.65484 87.5311 9.58341C97.9552 8.33334 108.201 8.65989 118.038 12.8846C135.212 20.2676 144.657 38.2584 137.819 55.1725L137.83 55.1674ZM193.608 213.222V270.026C195.302 268.806 196.828 267.862 198.154 266.689C198.751 266.163 199.267 265.194 199.277 264.418C199.43 248.193 199.506 231.968 199.578 215.742C199.578 214.844 199.455 213.946 199.379 212.865C197.348 212.992 195.598 213.099 193.608 213.222ZM126.727 70.0152C129.503 69.7652 132.273 69.3978 135.059 69.2855C153.882 68.4998 170.066 74.1429 182.123 89.21C185.72 93.7052 188.557 98.8075 192.088 103.359C194.874 106.951 198.17 110.15 201.313 113.456C201.813 113.982 202.685 114.155 203.384 114.492C197.246 108.951 193.251 101.976 189.2 95.1287C182.75 84.2353 174.041 76.0104 162.239 71.3111C150.626 66.6936 138.789 65.5047 126.732 70.0152H126.727ZM96.9806 377.307C97.2 377.368 97.4143 377.424 97.6337 377.485C99.4348 374.062 101.246 370.643 103.032 367.209C103.216 366.852 103.313 366.398 103.302 365.995C102.991 355.352 103.833 344.55 98.7154 334.376C96.1847 348.713 97.5674 363.051 96.9857 377.307H96.9806ZM196.272 73.4286C190.179 59.3258 165.229 44.172 145.713 54.6929C165.209 53.8051 182.138 59.137 196.272 73.4286ZM203.027 96.5931C199.991 69.9794 160.509 48.6059 138.238 61.4484C168.831 56.6216 190.261 68.1324 203.027 96.5931ZM123.599 73.9797C123.62 74.097 123.645 74.2144 123.666 74.3317C126.008 74.4389 128.355 74.5103 130.692 74.6532C143.498 75.444 154.749 80.133 164.602 88.2661C171.311 93.8021 176.265 100.787 180.852 108.078C181.495 109.099 182.256 110.043 182.965 111.028C183.199 110.339 183.087 109.859 182.863 109.446C181.036 106.094 179.393 102.619 177.306 99.4351C165.923 82.077 149.897 73.0867 129.023 73.1276C127.212 73.1276 125.406 73.6837 123.594 73.9848L123.599 73.9797ZM63.8309 59.1676C63.785 52.6877 57.5551 45.6567 50.2282 43.4627C39.7378 40.3197 28.9515 44.3863 22.7216 53.8357C18.6857 59.9483 17.6601 69.061 20.6092 72.5969C22.2624 55.6062 26.9106 47.9069 38.3194 45.4424C50.1873 42.8811 58.4582 48.361 63.836 59.1625L63.8309 59.1676ZM219.298 57.3359C208.701 38.0594 181.159 31.9978 163.591 43.4117C184.429 37.493 203.522 40.4881 219.298 57.3359ZM165.188 47.9936C186.169 50.3815 202.139 59.9636 211.425 79.9953C211.18 73.5409 204.522 64.2853 198.92 59.0656C189.399 50.1927 178.112 46.6313 165.183 47.9885L165.188 47.9936ZM153.096 43.677C157.101 36.0899 156.356 28.5028 152.131 21.4871C145.973 11.2774 136.279 6.52203 124.645 5.38931C133.044 8.28232 141.054 11.8692 146.993 18.8288C153.167 26.0588 155.295 34.3449 153.096 43.677ZM184.154 45.3659C201.292 49.4426 213.313 59.785 220.977 75.4542C219.094 62.4127 200.966 43.9577 184.154 45.3659ZM134.549 275.368L134.197 274.807C130.595 276.98 126.89 279.001 123.416 281.358C115.38 286.807 107.629 292.644 101.991 300.721C100.307 303.129 99.2205 305.951 97.8582 308.584C98.0929 308.716 98.3225 308.849 98.5572 308.977C107.114 294.098 121.569 285.521 134.549 275.368ZM146.504 9.79771C151.075 13.8438 154.739 18.0328 156.79 23.3188C158.815 28.5436 159.418 33.9878 157.887 39.983C164.999 31.8091 159.448 15.0378 146.509 9.79771H146.504ZM83.0411 27.4823C87.6689 31.2937 91.9753 35.3246 94.6846 40.7789C97.4602 46.3762 97.3939 52.1571 95.7714 58.0655C102.996 48.6824 96.1898 32.1254 83.0411 27.4772V27.4823ZM148.835 130.345C148.687 129.692 148.698 129.426 148.575 129.258C144.789 124.064 143.58 118.064 143.014 111.834C142.6 107.298 142.075 102.757 139.626 98.0319C139.814 99.9861 139.917 101.308 140.075 102.619C140.738 108.247 141.228 113.905 142.162 119.487C142.871 123.748 145.146 127.283 148.835 130.345ZM161.862 14.2265C166.433 19.2727 170.219 24.7169 171.311 31.656C172.209 23.6505 167.765 18.5227 161.862 14.2265ZM36.6254 163.433C39.3245 166.648 43.0288 167.53 46.6974 165.99C47.3862 165.699 47.8607 164.908 48.4372 164.352C48.2791 164.137 48.1158 163.918 47.9576 163.704C44.1411 165.132 40.3603 165.398 36.6254 163.438V163.433ZM13.3742 67.1273C15.0171 62.5505 16.4815 58.4839 17.9407 54.4174C15.063 58.0145 13.3946 62.0096 13.3742 67.1273ZM207.997 259.607H203.272V263.03C204.849 261.887 206.15 260.944 207.997 259.607Z" fill="#F5EBBF"/>
</svg>
