<svg width="275" height="213" viewBox="0 0 275 213" fill="none" xmlns="http://www.w3.org/2000/svg">
<g clip-path="url(#clip0_81_1114)">
<path d="M5.92599 172.964L1.5536 166.635H5.69586L8.05465 170.087L10.3559 166.635H14.3831L10.0107 172.849L14.9009 179.868H10.7586L7.99711 175.668L5.23561 179.868H1.15088L5.92599 172.964Z" fill="#FF2B06"/>
<path d="M32.1026 172.043H19.2156V169.282H32.1601V172.043H32.1026ZM32.1026 177.566H19.2156V174.805H32.1601V177.566H32.1026Z" fill="white"/>
<path d="M42.0555 164.622H38.4311V161.63H42.0555V164.622ZM38.3735 166.635H41.998V179.868H38.3735V166.635Z" fill="white"/>
<path d="M44.4142 166.635H47.8661V168.476H47.9236C48.8441 166.981 50.455 166.29 51.9508 166.29C55.8054 166.29 56.7835 168.476 56.7835 171.756V179.925H53.159V172.446C53.159 170.26 52.5261 169.167 50.8002 169.167C48.8441 169.167 47.9812 170.26 47.9812 172.964V179.925H44.3567V166.635H44.4142Z" fill="white"/>
<path d="M68.52 178.199C67.5995 179.638 66.1612 180.27 64.4353 180.27C60.4656 180.27 58.5095 176.818 58.5095 173.194C58.5095 169.627 60.4656 166.348 64.3777 166.348C65.9311 166.348 67.4844 167.038 68.3474 168.304H68.4049V161.63H72.0294V179.925H68.5775V178.199H68.52ZM65.3558 169.052C62.997 169.052 62.134 171.123 62.134 173.252C62.134 175.323 63.0545 177.509 65.3558 177.509C67.7721 177.509 68.4625 175.438 68.4625 173.252C68.4625 171.065 67.7145 169.052 65.3558 169.052Z" fill="white"/>
<path d="M77.2072 174.172C77.3223 176.473 78.4154 177.509 80.4865 177.509C81.9248 177.509 83.133 176.588 83.3631 175.783H86.5849C85.5493 178.89 83.3631 180.213 80.3715 180.213C76.1717 180.213 73.5828 177.336 73.5828 173.251C73.5828 169.282 76.3443 166.233 80.3715 166.233C84.8589 166.233 87.0451 170.03 86.815 174.114H77.2072V174.172ZM83.133 171.871C82.7878 170.03 81.9823 169.052 80.2564 169.052C77.9552 169.052 77.2648 170.835 77.2072 171.871H83.133Z" fill="white"/>
<path d="M88.3684 166.635H91.8203V168.304H91.8778C92.7408 166.923 94.1791 166.233 95.8475 166.233C99.9897 166.233 101.888 169.569 101.888 173.367C101.888 176.876 99.9322 180.213 96.0776 180.213C94.4667 180.213 92.9709 179.522 92.1079 178.199H91.9929V184.47H88.3684V166.635ZM98.2063 173.309C98.2063 171.238 97.3433 169.052 95.0421 169.052C92.6833 169.052 91.8778 171.18 91.8778 173.309C91.8778 175.438 92.6833 177.509 95.0421 177.509C97.4584 177.509 98.2063 175.495 98.2063 173.309Z" fill="white"/>
<path d="M106.491 174.172C106.606 176.473 107.699 177.509 109.77 177.509C111.208 177.509 112.416 176.588 112.647 175.783H115.868C114.833 178.89 112.647 180.213 109.655 180.213C105.455 180.213 102.866 177.336 102.866 173.251C102.866 169.282 105.628 166.233 109.655 166.233C114.142 166.233 116.329 170.03 116.098 174.114H106.491V174.172ZM112.416 171.871C112.071 170.03 111.266 169.052 109.54 169.052C107.239 169.052 106.548 170.835 106.491 171.871H112.416Z" fill="white"/>
<path d="M117.709 166.635H121.161V168.476H121.219C122.139 166.981 123.75 166.29 125.246 166.29C129.1 166.29 130.078 168.476 130.078 171.756V179.925H126.512V172.446C126.512 170.26 125.879 169.167 124.21 169.167C122.254 169.167 121.391 170.26 121.391 172.964V179.925H117.767V166.635H117.709Z" fill="white"/>
<path d="M141.815 178.199C140.894 179.638 139.456 180.27 137.73 180.27C133.761 180.27 131.804 176.818 131.804 173.194C131.804 169.627 133.76 166.348 137.673 166.348C139.226 166.348 140.779 167.038 141.642 168.304H141.7V161.63H145.324V179.925H141.872V178.199H141.815ZM138.651 169.052C136.292 169.052 135.429 171.123 135.429 173.252C135.429 175.323 136.349 177.509 138.651 177.509C141.067 177.509 141.757 175.438 141.757 173.252C141.757 171.065 141.009 169.052 138.651 169.052Z" fill="white"/>
<path d="M150.502 174.172C150.617 176.473 151.71 177.509 153.781 177.509C155.22 177.509 156.428 176.588 156.658 175.783H159.88C158.844 178.89 156.658 180.213 153.666 180.213C149.467 180.213 146.878 177.336 146.878 173.251C146.878 169.282 149.639 166.233 153.666 166.233C158.154 166.233 160.34 170.03 160.11 174.114H150.502V174.172ZM156.428 171.871C156.083 170.03 155.277 169.052 153.551 169.052C151.25 169.052 150.56 170.835 150.502 171.871H156.428Z" fill="white"/>
<path d="M161.663 166.635H165.115V168.476H165.173C166.093 166.981 167.704 166.29 169.2 166.29C173.054 166.29 174.032 168.476 174.032 171.756V179.925H170.408V172.446C170.408 170.26 169.775 169.167 168.049 169.167C166.093 169.167 165.23 170.26 165.23 172.964V179.925H161.606V166.635H161.663Z" fill="white"/>
<path d="M180.994 166.635H183.64V169.052H180.994V175.61C180.994 176.818 181.281 177.164 182.547 177.164C182.95 177.164 183.295 177.164 183.698 177.049V179.868C183.065 179.983 182.317 179.983 181.569 179.983C179.325 179.983 177.369 179.465 177.369 176.818V168.994H175.183V166.635H177.369V162.666H180.994V166.635Z" fill="white"/>
<path d="M184.964 161.63H188.588V179.925H184.964V161.63Z" fill="white"/>
<path d="M197.505 181.594C196.7 183.722 195.434 184.585 192.96 184.585C192.212 184.585 191.465 184.528 190.717 184.47V181.479C191.407 181.536 192.097 181.651 192.845 181.594C194.111 181.479 194.514 180.155 194.111 179.12L189.451 166.693H193.363L196.355 175.783H196.412L199.289 166.693H203.028L197.505 181.594Z" fill="white"/>
<path d="M7.59404 193.675C11.7938 193.675 14.4403 196.437 14.4403 200.694C14.4403 204.894 11.7363 207.655 7.59404 207.655C3.45178 207.655 0.747803 204.894 0.747803 200.694C0.747803 196.437 3.45178 193.675 7.59404 193.675ZM7.59404 204.894C10.0679 204.894 10.8158 202.765 10.8158 200.694C10.8158 198.565 10.0679 196.437 7.59404 196.437C5.12019 196.437 4.37228 198.565 4.37228 200.694C4.37228 202.765 5.12019 204.894 7.59404 204.894Z" fill="white"/>
<path d="M15.7637 194.02H19.2156V196.494H19.2731C19.9635 194.826 21.7469 193.675 23.4729 193.675C23.703 193.675 24.0482 193.733 24.2783 193.79V197.185C23.9331 197.127 23.4153 197.069 22.9551 197.069C20.3087 197.069 19.3882 198.968 19.3882 201.327V207.31H15.7637V194.02Z" fill="white"/>
<path d="M37.9707 206.447C37.9707 208.633 37.2228 212.315 31.1244 212.315C28.5355 212.315 25.4864 211.107 25.3138 208.058H28.9382C29.2834 209.439 30.3765 209.899 31.6422 209.899C33.6558 209.899 34.5763 208.518 34.5763 206.62V204.894H34.4613C33.6558 206.275 32.1025 206.965 30.4916 206.965C26.5219 206.965 24.8535 203.916 24.8535 200.291C24.8535 196.839 26.8096 193.733 30.5491 193.733C32.2751 193.733 33.5983 194.308 34.5188 195.861H34.5763V194.078H38.0282V206.447H37.9707ZM34.5188 200.464C34.5188 198.335 33.7709 196.379 31.4121 196.379C29.341 196.379 28.478 198.163 28.478 200.119C28.478 202.017 29.1684 204.088 31.4121 204.088C33.4832 204.146 34.5188 202.362 34.5188 200.464Z" fill="white"/>
<path d="M39.6967 198.105C39.9269 194.711 42.976 193.675 45.9101 193.675C48.5566 193.675 51.7208 194.25 51.7208 197.415V204.318C51.7208 205.527 51.8359 206.735 52.1811 207.253H48.499C48.384 206.85 48.2689 206.39 48.2689 205.987C47.1183 207.195 45.4499 207.598 43.839 207.598C41.3076 207.598 39.3516 206.332 39.3516 203.628C39.3516 200.636 41.5953 199.889 43.839 199.601C46.0827 199.256 48.1539 199.371 48.1539 197.875C48.1539 196.322 47.0608 196.091 45.7951 196.091C44.4143 196.091 43.4938 196.667 43.3788 198.105H39.6967ZM48.0963 200.809C47.4635 201.327 46.1978 201.384 45.0472 201.557C43.8965 201.787 42.9185 202.19 42.9185 203.513C42.9185 204.894 43.9541 205.181 45.1622 205.181C47.9813 205.181 48.0963 202.938 48.0963 202.132V200.809Z" fill="white"/>
<path d="M54.022 194.02H57.4739V195.861H57.5314C58.4519 194.365 60.0628 193.675 61.5586 193.675C65.4132 193.675 66.3912 195.861 66.3912 199.141V207.31H62.7667V199.831C62.7667 197.645 62.1339 196.552 60.408 196.552C58.4519 196.552 57.5889 197.645 57.5889 200.349V207.31H54.022V194.02Z" fill="white"/>
<path d="M71.9143 192.007H68.2898V189.015H71.9143V192.007ZM68.2898 194.02H71.9143V207.253H68.2898V194.02Z" fill="white"/>
<path d="M73.4675 204.549L80.3713 196.782H73.9853V194.02H85.1464V196.782L78.2426 204.549H85.6642V207.31H73.5251V204.549H73.4675Z" fill="white"/>
<path d="M90.0942 201.557C90.2093 203.858 91.3024 204.894 93.3735 204.894C94.8118 204.894 96.0199 203.973 96.2501 203.168H99.4718C98.4363 206.274 96.2501 207.598 93.2584 207.598C89.0586 207.598 86.4697 204.721 86.4697 200.636C86.4697 196.667 89.2312 193.618 93.2584 193.618C97.7459 193.618 99.9321 197.415 99.7019 201.499H90.0942V201.557ZM95.9624 199.256C95.6172 197.415 94.8118 196.437 93.0858 196.437C90.7846 196.437 90.0942 198.22 90.0367 199.256H95.9624Z" fill="white"/>
<path d="M110.69 205.584C109.77 207.022 108.332 207.655 106.606 207.655C102.636 207.655 100.68 204.203 100.68 200.579C100.68 197.012 102.636 193.733 106.548 193.733C108.101 193.733 109.655 194.423 110.518 195.689H110.575V189.015H114.2V207.31H110.748V205.584H110.69ZM107.526 196.437C105.167 196.437 104.304 198.508 104.304 200.636C104.304 202.708 105.225 204.894 107.526 204.894C109.942 204.894 110.633 202.823 110.633 200.636C110.633 198.45 109.885 196.437 107.526 196.437Z" fill="white"/>
<path d="M127.432 192.352H121.967V188.958H136.925V192.352H131.459V207.253H127.432V192.352Z" fill="white"/>
<path d="M138.536 189.015H152.228V192.409H142.563V196.322H151.423V199.428H142.563V203.916H152.401V207.31H138.536V189.015Z" fill="white"/>
<path d="M154.069 189.015H161.951C166.668 189.015 170.235 192.007 170.235 198.048C170.235 203.34 167.531 207.31 161.951 207.31H154.069V189.015ZM158.096 203.916H161.663C163.964 203.916 166.208 202.477 166.208 198.45C166.208 194.768 164.943 192.409 160.915 192.409H158.039V203.916H158.096Z" fill="white"/>
<path d="M181.742 201.557C181.857 203.858 182.95 204.894 185.021 204.894C186.459 204.894 187.667 203.973 187.898 203.168H191.119C190.084 206.274 187.898 207.598 184.906 207.598C180.706 207.598 178.117 204.721 178.117 200.636C178.117 196.667 180.879 193.618 184.906 193.618C189.393 193.618 191.58 197.415 191.349 201.499H181.742V201.557ZM187.667 199.256C187.322 197.415 186.517 196.437 184.791 196.437C182.49 196.437 181.799 198.22 181.742 199.256H187.667Z" fill="white"/>
<path d="M199.749 207.253H195.722L191.177 194.02H194.974L197.793 203.053H197.85L200.669 194.02H204.294L199.749 207.253Z" fill="white"/>
<path d="M207.746 201.557C207.861 203.858 208.954 204.894 211.025 204.894C212.463 204.894 213.672 203.973 213.902 203.168H217.123C216.088 206.274 213.902 207.598 210.91 207.598C206.71 207.598 204.121 204.721 204.121 200.636C204.121 196.667 206.883 193.618 210.91 193.618C215.397 193.618 217.584 197.415 217.354 201.499H207.746V201.557ZM213.614 199.256C213.269 197.415 212.463 196.437 210.737 196.437C208.436 196.437 207.746 198.22 207.688 199.256H213.614Z" fill="white"/>
<path d="M218.907 194.02H222.359V195.861H222.417C223.337 194.365 224.948 193.675 226.444 193.675C230.298 193.675 231.276 195.861 231.276 199.141V207.31H227.652V199.831C227.652 197.645 227.019 196.552 225.293 196.552C223.337 196.552 222.474 197.645 222.474 200.349V207.31H218.85V194.02H218.907Z" fill="white"/>
<path d="M238.18 194.02H240.827V196.437H238.18V202.995C238.18 204.203 238.468 204.549 239.733 204.549C240.136 204.549 240.481 204.549 240.884 204.434V207.253C240.251 207.368 239.503 207.368 238.755 207.368C236.512 207.368 234.556 206.85 234.556 204.203V196.379H232.369V193.963H234.556V189.993H238.18V194.02Z" fill="white"/>
<path d="M16.8567 16.5527H-0.172607V0.9617H52.6987V16.5527H35.6119V61.8299H16.8567V16.5527Z" fill="#FF2B06"/>
<path d="M55.5754 0.961716H106.893V16.5527H74.3307V24.1469H106.893V38.6448H74.3307V46.2389H106.893V61.8299H55.5754V0.961716Z" fill="#FF2B06"/>
<path d="M110.058 0.961716H140.837C161.145 0.961716 168.279 15.9774 168.279 31.3383C168.279 50.036 158.384 61.8875 137.155 61.8875H110.058V0.961716ZM128.813 46.2389H136.177C147.856 46.2389 149.582 36.7462 149.582 31.0506C149.582 27.196 148.374 16.5527 134.796 16.5527H128.813V46.2389Z" fill="#FF2B06"/>
<path d="M195.262 38.4146L189.566 28.922L183.985 38.4146H170.235L183.295 19.2567L170.753 0.90419H184.503L189.566 9.99415L194.801 0.90419H208.551L196.009 19.2567L209.069 38.4146H195.262Z" fill="#FF2B06"/>
<path d="M1.40243 143.887V82.4211H22.8917C27.1735 82.4211 30.705 83.1614 33.4862 84.642C36.2674 86.1026 38.3383 88.0735 39.6989 90.5546C41.0595 93.0156 41.7398 95.7468 41.7398 98.7481C41.7398 101.389 41.2696 103.57 40.3291 105.291C39.4088 107.012 38.1882 108.372 36.6676 109.373C35.1669 110.373 33.5362 111.113 31.7755 111.594V112.194C33.6563 112.314 35.5471 112.974 37.4479 114.175C39.3487 115.375 40.9394 117.096 42.22 119.337C43.5005 121.578 44.1408 124.319 44.1408 127.56C44.1408 130.642 43.4405 133.413 42.0399 135.874C40.6393 138.335 38.4283 140.286 35.407 141.727C32.3857 143.167 28.454 143.887 23.612 143.887H1.40243ZM8.84562 137.285H23.612C28.4741 137.285 31.9255 136.344 33.9664 134.463C36.0273 132.563 37.0577 130.262 37.0577 127.56C37.0577 125.48 36.5275 123.559 35.4671 121.798C34.4066 120.017 32.896 118.597 30.9351 117.536C28.9743 116.456 26.6533 115.915 23.9721 115.915H8.84562V137.285ZM8.84562 109.433H22.6516C24.8925 109.433 26.9134 108.992 28.7142 108.112C30.5349 107.232 31.9756 105.991 33.036 104.39C34.1165 102.79 34.6567 100.909 34.6567 98.7481C34.6567 96.0469 33.7163 93.7559 31.8355 91.8751C29.9547 89.9743 26.9734 89.0239 22.8917 89.0239H8.84562V109.433ZM58.8921 82.4211L77.14 134.163H77.8603L96.1081 82.4211H103.911L81.3418 143.887H73.6585L51.0888 82.4211H58.8921ZM160.058 101.629H152.615C152.175 99.4884 151.404 97.6076 150.304 95.9869C149.223 94.3662 147.903 93.0056 146.342 91.9051C144.802 90.7847 143.091 89.9443 141.21 89.3841C139.329 88.8238 137.368 88.5437 135.327 88.5437C131.606 88.5437 128.234 89.4841 125.213 91.3649C122.212 93.2457 119.821 96.0169 118.04 99.6785C116.279 103.34 115.399 107.832 115.399 113.154C115.399 118.477 116.279 122.968 118.04 126.63C119.821 130.292 122.212 133.063 125.213 134.944C128.234 136.824 131.606 137.765 135.327 137.765C137.368 137.765 139.329 137.485 141.21 136.924C143.091 136.364 144.802 135.534 146.342 134.433C147.903 133.313 149.223 131.942 150.304 130.322C151.404 128.681 152.175 126.8 152.615 124.679H160.058C159.498 127.821 158.477 130.632 156.997 133.113C155.516 135.594 153.675 137.705 151.474 139.446C149.273 141.166 146.802 142.477 144.061 143.377C141.34 144.278 138.429 144.728 135.327 144.728C130.085 144.728 125.423 143.447 121.341 140.886C117.26 138.325 114.048 134.684 111.707 129.961C109.366 125.239 108.196 119.637 108.196 113.154C108.196 106.671 109.366 101.069 111.707 96.347C114.048 91.625 117.26 87.9835 121.341 85.4224C125.423 82.8613 130.085 81.5807 135.327 81.5807C138.429 81.5807 141.34 82.0309 144.061 82.9313C146.802 83.8317 149.273 85.1522 151.474 86.893C153.675 88.6137 155.516 90.7146 156.997 93.1957C158.477 95.6567 159.498 98.468 160.058 101.629ZM223.948 113.154C223.948 119.637 222.778 125.239 220.437 129.961C218.096 134.684 214.884 138.325 210.802 140.886C206.721 143.447 202.059 144.728 196.816 144.728C191.574 144.728 186.912 143.447 182.83 140.886C178.749 138.325 175.537 134.684 173.196 129.961C170.855 125.239 169.685 119.637 169.685 113.154C169.685 106.671 170.855 101.069 173.196 96.347C175.537 91.625 178.749 87.9835 182.83 85.4224C186.912 82.8613 191.574 81.5807 196.816 81.5807C202.059 81.5807 206.721 82.8613 210.802 85.4224C214.884 87.9835 218.096 91.625 220.437 96.347C222.778 101.069 223.948 106.671 223.948 113.154ZM216.745 113.154C216.745 107.832 215.855 103.34 214.074 99.6785C212.313 96.0169 209.922 93.2457 206.901 91.3649C203.899 89.4841 200.538 88.5437 196.816 88.5437C193.095 88.5437 189.723 89.4841 186.702 91.3649C183.701 93.2457 181.31 96.0169 179.529 99.6785C177.768 103.34 176.888 107.832 176.888 113.154C176.888 118.477 177.768 122.968 179.529 126.63C181.31 130.292 183.701 133.063 186.702 134.944C189.723 136.824 193.095 137.765 196.816 137.765C200.538 137.765 203.899 136.824 206.901 134.944C209.922 133.063 212.313 130.292 214.074 126.63C215.855 122.968 216.745 118.477 216.745 113.154ZM236.463 143.887V82.4211H273.559V89.0239H243.907V109.793H271.639V116.396H243.907V137.285H274.04V143.887H236.463Z" fill="#F5F5F5"/>
</g>
<defs>
<clipPath id="clip0_81_1114">
<rect width="275" height="211.14" fill="white" transform="translate(0 0.959824)"/>
</clipPath>
</defs>
</svg>
