<svg width="233" height="396" viewBox="0 0 233 396" fill="none" xmlns="http://www.w3.org/2000/svg">
<path opacity="0.05" d="M126.14 316.885C124.126 323.922 123.866 331.515 124.692 339.164C125.681 348.307 127.415 357.286 130.898 365.863C131.199 366.608 130.811 367.627 130.745 368.52C129.883 367.913 128.491 367.469 128.251 366.674C126.416 360.591 124.498 354.512 123.193 348.307C119.496 330.776 121.898 313.902 129.358 297.692C130.026 296.239 130.826 294.842 131.566 293.419C126.456 288.264 121.327 283.195 116.314 278.009C105.744 267.072 95.173 256.108 87.3406 242.922C81.033 232.295 77.1627 220.761 75.174 208.584C74.9955 207.498 74.7049 206.422 74.6131 205.326C74.4295 203.199 73.4403 202.49 71.3139 203.327C71.3139 207.875 71.2324 212.439 71.3292 216.998C71.5383 226.426 72.2624 235.803 74.4499 245.013C77.3973 257.429 83.0573 268.719 88.7429 280.039C95.3617 293.225 102.057 306.422 107.758 320.011C111.546 329.037 113.443 338.832 116.564 348.159C121.826 363.9 129.995 378.183 139.276 391.864C139.515 392.216 139.954 392.527 139.995 392.894C140.076 393.638 139.954 394.408 139.913 395.168C139.255 394.974 138.358 394.99 137.986 394.556C136.828 393.21 135.829 391.721 134.834 390.242C123.397 373.262 114.968 354.93 109.787 335.095C105.198 317.543 96.8353 301.613 88.6053 285.587C83.2664 275.189 78.4273 264.491 74.1032 253.635C68.8918 240.566 68.6726 226.62 68.5553 212.755C68.5298 209.395 68.5553 206.04 68.5553 202.679C68.1524 202.649 67.7547 202.618 67.3519 202.587C67.2346 203.22 67.0867 203.847 67 204.484C64.7258 221.24 61.7173 237.853 56.2969 253.906C48.0209 278.412 32.7132 297.85 12.4745 313.627C12.138 313.887 11.8065 314.321 11.4445 314.346C10.547 314.407 9.63425 314.285 8.73169 314.234C8.88977 313.321 8.73679 312.108 9.27221 311.557C10.8581 309.92 12.7091 308.533 14.4683 307.059C37.1086 288.06 51.2844 264.038 57.0566 235.069C57.6685 231.999 57.9796 228.863 58.3518 225.748C58.6017 223.662 57.6532 222.984 55.6034 223.509C31.9381 229.567 9.71075 215.906 2.5311 192.369C-0.349932 182.92 -1.03835 173.425 1.86819 163.808C2.25062 162.544 1.80189 160.983 1.57753 159.586C-1.82872 138.501 6.71751 119.833 25.0134 108.798C27.3182 107.406 28.1137 106.208 27.7771 103.266C24.5238 74.8835 33.4576 50.7644 53.7422 30.7501C64.6544 19.9857 77.1219 11.5823 91.5883 6.47801C105.56 1.55221 119.996 -0.543549 134.875 0.119345C149.627 0.777139 163.793 3.67347 177.346 9.58852C193.638 16.6968 206.503 27.8538 216.069 42.723C223.259 53.9004 229.363 65.6693 231.851 78.9068C234.447 92.7153 233.33 106.121 226.706 118.782C226.39 119.389 226.1 120.332 226.349 120.863C229.22 126.992 227.354 132.713 224.743 138.246C222.081 143.901 222.071 149.739 222.856 155.685C223.28 158.882 224.004 162.034 224.524 165.221C225.972 174.093 224.366 182.66 221.648 191.043C215.345 210.501 209.033 229.939 201.43 248.964C196.427 261.488 187.57 267.26 174.603 267.082C169.055 267.005 163.487 266.021 157.995 265.057C156.011 264.711 154.905 265.017 153.696 266.495C143.855 278.535 137.308 292.221 133.32 307.172C131.26 314.897 129.71 322.688 130.592 330.796C131.683 340.765 136.165 348.801 143.804 355.221C150.168 360.565 156.608 365.848 162.691 371.508C167.194 375.694 170.467 380.921 172.936 386.591C173.206 387.213 173.629 387.866 173.609 388.493C173.583 389.319 173.185 390.135 172.946 390.956C172.109 390.574 170.942 390.416 170.508 389.768C169.284 387.948 168.397 385.898 167.316 383.975C162.839 376.031 156.113 370.187 149.168 364.542C145.283 361.386 141.285 358.321 137.695 354.844C129.786 347.18 126.14 337.639 126.145 326.661C126.145 323.275 126.145 319.894 126.145 316.891L126.14 316.885ZM170.32 132.52C170.213 132.795 170.111 133.075 170.003 133.351C168.311 132.785 166.572 132.321 164.93 131.627C162.717 130.694 160.672 129.225 158.388 128.624C153.14 127.242 147.827 126.023 142.473 125.177C139.255 124.667 135.655 124.167 132.672 125.095C127.374 126.747 122.418 129.486 117.324 131.775C116.396 132.193 115.503 132.876 114.545 132.963C113.795 133.035 112.974 132.372 112.189 132.035C112.51 131.352 112.648 130.352 113.183 130.036C119.618 126.248 126.064 122.459 132.632 118.91C134.345 117.987 136.583 117.258 138.434 117.513C146.328 118.604 154.221 119.838 162.013 121.505C171.589 123.555 178.004 129.572 181.023 138.843C182.486 143.335 183.297 148.057 184.215 152.712C186.153 162.538 187.937 172.395 189.849 182.226C190.395 185.036 192.756 186.566 195.484 186.102C198.034 185.668 198.926 184.174 198.273 180.88C197.152 175.225 195.744 169.621 194.729 163.946C193.133 155.022 191.145 146.109 190.456 137.099C189.697 127.125 190.206 117.059 190.171 107.029C190.12 92.2411 188.651 77.7085 182.649 63.9458C182.313 63.1707 182.604 62.1254 182.604 61.2024C182.935 61.1412 183.261 61.0749 183.593 61.0137C184.296 62.105 185.174 63.1248 185.673 64.3027C190.757 76.2807 192.603 88.9165 192.873 101.802C193.103 112.674 192.985 123.555 193.021 134.437C193.021 135.115 193.057 135.793 193.082 136.471C193.108 137.124 193.144 137.772 193.189 138.848C193.551 138.139 193.75 137.853 193.852 137.537C196.402 129.639 201.44 124.238 209.507 121.801C212.837 120.797 216.105 119.593 219.435 118.583C220.954 118.119 221.362 117.406 221.011 115.804C219.068 106.932 217.411 97.9981 215.33 89.1612C212.944 79.0291 208.171 70.4931 198.105 65.5112C199.013 65.0676 200.119 64.6036 200.859 64.9452C204.851 66.7962 208.987 68.4891 212.633 70.901C219.695 75.5617 224.855 81.8796 227.267 90.1709C227.583 91.2621 227.823 92.3686 228.098 93.47C229.465 85.9079 227.675 79.1974 222.637 73.5577C216.59 66.7911 208.941 63.1044 199.834 62.6914C196.611 62.5435 193.378 62.6659 189.702 62.6659C192.797 60.0449 196.065 60.05 199.268 60.0449C210.124 60.0245 218.879 64.5679 226.084 72.6144C225.727 71.1407 225.202 69.8302 224.626 68.535C220.608 59.4738 212.245 54.599 202.424 56.0675C198.176 56.7049 194.077 58.2653 189.885 59.3157C188.666 59.6217 187.366 59.6268 186.107 59.7747C186.03 59.4585 185.954 59.1423 185.877 58.8262C188.86 57.4647 191.808 56.0063 194.842 54.7621C199.946 52.6715 202.781 48.7706 203.831 43.5542C205.173 36.8997 199.349 26.8951 192.108 23.5552C195.943 29.868 198.187 36.2419 196.229 43.4063C194.291 50.5145 189.824 55.2823 182.853 57.7962C189.12 52.233 194.255 46.1241 194.046 37.0833C193.857 29.0266 186.805 19.175 180.936 17.4362C181.727 18.4458 182.364 19.2107 182.95 20.0163C189.967 29.6385 193.801 44.8799 180.89 57.1639C178.453 59.484 178.279 59.4738 177.193 56.3378C173.374 45.2879 166.266 36.7722 156.322 30.8878C145.257 24.3404 133.06 23.1931 120.567 25.2736C102.934 28.2158 89.1917 37.6187 78.2845 51.463C70.8397 60.9169 66.0516 71.7781 61.8346 82.9402C58.2702 92.3788 55.3637 102.128 49.2243 110.374C47.3631 112.872 45.2418 115.172 43.0594 117.778C50.856 116.585 56.5569 112.419 61.2176 106.626C66.2963 100.308 69.1825 92.8581 72.0431 85.3929C75.1026 77.3923 77.6981 69.152 81.5021 61.5186C90.8948 42.6618 105.779 30.5716 126.992 27.2623C131.367 26.579 135.89 26.5331 140.367 28.0322C139.842 28.6493 139.245 29.1337 138.608 29.2C136.665 29.3937 134.712 29.4651 132.759 29.511C119.996 29.8119 109.038 34.6408 99.3747 42.7536C89.207 51.2845 83.2358 62.5792 78.774 74.7203C74.8783 85.3164 71.6709 96.193 65.3377 105.703C63.1705 108.956 60.6107 111.949 58.2192 115.08C58.362 115.121 58.4589 115.187 58.5099 115.162C58.8872 114.983 59.2646 114.8 59.6266 114.596C67.5303 110.078 72.2777 102.858 75.9389 94.9029C79.9519 86.1935 83.144 77.0965 87.4222 68.5248C97.0648 49.1887 111.353 35.5994 133.809 32.4787C152.182 29.924 169.488 40.2601 175.531 57.7809C175.827 58.6375 175.862 59.5809 176.021 60.4885C168.407 53.1151 160.131 47.6386 149.602 46.3434C139.143 45.0584 129.674 47.7253 121.169 53.2732C126.579 52.1106 132.132 50.6114 137.777 49.7752C146.976 48.4137 155.914 49.5202 164.139 54.2114C165.888 55.2109 167.423 56.5826 169.06 57.786C168.897 58.046 168.739 58.3112 168.576 58.5712C166.745 57.7962 164.971 56.8273 163.074 56.2817C157.801 54.7724 152.513 52.3757 147.169 52.2075C117.314 51.2539 98.8189 69.4427 89.5843 94.8978C92.0115 92.3278 94.3469 89.6762 96.56 86.9176C104.137 77.479 112.857 69.4223 123.657 63.7316C134.539 58.0001 145.915 55.0732 158.24 57.1843C160.279 57.531 162.243 58.3061 164.241 58.8823C164.175 59.1169 164.109 59.3565 164.043 59.5911C162.803 59.5911 161.559 59.6574 160.32 59.5809C143.172 58.5152 125.508 71.309 127.986 92.2768C128.379 95.6015 128.068 99.0791 127.604 102.419C125.977 114.117 112.459 126.36 100.762 126.916C100.272 126.941 99.7623 126.564 99.2625 126.37C99.5787 125.86 99.7776 125.126 100.242 124.881C101.358 124.289 102.603 123.943 103.78 123.468C108.773 121.47 113.505 119.093 117.416 115.233C123.438 109.288 126.054 102.128 125.35 93.7811C124.549 84.3068 125.641 75.424 132.565 68.1679C133.876 66.7962 135.288 65.5163 136.655 64.1956C135.854 64.0835 135.37 64.3486 134.896 64.6342C126.472 69.7282 122.183 77.6269 120.016 86.8717C117.854 96.0961 114.234 104.607 108.354 112.087C105.677 115.493 102.965 118.869 100.293 122.28C99.7776 122.938 99.288 123.647 98.977 124.412C97.6716 127.635 96.4478 130.893 95.173 134.131C93.5056 138.368 91.8126 142.596 90.1554 146.767C90.4461 146.971 90.5124 147.062 90.5837 147.062C98.4008 147.057 106.223 147.246 114.025 146.94C117.951 146.787 121.979 146.15 125.712 144.962C131.27 143.192 136.532 140.49 142.07 138.628C150.683 135.727 156.598 137.629 162.528 144.503C163.839 146.022 165.526 147.21 166.888 148.694C167.337 149.184 167.678 150.331 167.408 150.764C167.102 151.259 166.026 151.519 165.328 151.448C164.629 151.381 163.992 150.764 163.318 150.413C161.014 149.224 158.627 148.796 156.236 150.04C149.719 153.421 143.325 152.916 136.966 149.607C136.237 149.23 135.416 149.041 134.636 148.766C135.064 149.806 135.655 150.407 136.339 150.877C142.356 155.012 148.719 155.593 155.435 152.748C157.026 152.075 158.637 150.724 160.56 152.274C160.341 152.6 160.244 152.85 160.065 152.993C159.601 153.36 159.112 153.702 158.602 154.007C150.479 158.923 142.432 158.464 134.656 153.324C131.387 151.162 127.971 150.214 124.111 150.224C113.658 150.249 103.204 150.168 92.7509 150.132C90.1129 150.122 88.6392 151.461 88.3299 154.15C87.2336 163.568 90.8642 171.426 96.4529 178.606C102.037 185.77 109.084 191.405 116.039 197.131C123.718 203.454 130.444 210.593 134.717 219.721C135.038 220.404 134.605 221.434 134.523 222.306C133.713 221.872 132.621 221.633 132.157 220.965C131.102 219.44 130.444 217.65 129.475 216.059C125.222 209.053 119.231 203.653 113.132 198.335C108.074 193.924 102.914 189.61 98.1764 184.868C91.4455 178.122 86.4942 170.269 85.5712 160.473C85.3265 157.852 85.5355 155.191 85.5355 152.549C81.3236 159.005 81.0789 165.878 84.7197 172.13C86.4177 175.037 88.7378 177.576 90.6551 180.365C91.0223 180.901 90.8489 181.808 90.9254 182.542C90.186 182.425 89.1866 182.578 88.7531 182.155C84.4137 177.943 81.0432 173.119 79.7837 167.061C79.6562 166.444 79.4471 165.848 79.0851 164.558C77.2749 167.459 75.6482 169.733 74.3683 172.191C72.6856 175.429 73.2975 178.489 75.9287 181.018C79.6358 184.587 81.5633 188.906 82.2568 194.005C84.9644 213.948 94.5254 229.628 111.878 240.138C124.534 247.802 137.797 254.334 151.733 259.336C158.535 261.779 165.608 263.339 172.941 263.125C179.575 262.926 184.22 259.122 185.638 252.748C186.662 248.138 186.01 243.605 184.75 239.159C184.567 238.516 183.343 237.762 182.604 237.762C179.957 237.756 177.311 238.052 174.037 238.282C175.143 237.415 175.766 236.93 176.204 236.584C173.864 235.141 171.574 233.728 169.284 232.316C169.443 231.913 169.601 231.505 169.759 231.102C170.855 231.291 171.956 231.49 173.053 231.673C175.929 232.158 178.8 232.815 181.696 233.014C182.624 233.08 183.955 232.147 184.546 231.291C186.719 228.144 185.505 224.091 182.221 222.158C179.503 220.562 176.53 220.205 173.899 221.475C168.764 223.963 163.492 224.06 158.082 223.423C157.276 223.326 156.251 222.785 155.869 222.133C155.552 221.597 155.777 220.292 156.246 219.874C156.807 219.369 158.046 219.063 158.714 219.338C161.131 220.343 163.293 219.705 165.266 218.492C167.79 216.942 170.126 215.075 172.573 213.398C174.603 212.011 176.617 210.578 178.754 209.38C181.064 208.084 183.409 208.023 185.658 209.777C187.754 211.409 189.926 211.501 192.251 209.996C194.673 208.431 196.473 208.951 197.906 211.491C198.569 212.663 198.926 214.01 199.533 215.218C200.374 216.885 201.43 218.451 202.169 220.159C202.444 220.797 202.332 221.862 201.96 222.464C200.803 224.346 197.927 224.774 196.091 223.448C195.408 222.953 194.913 221.969 194.194 221.806C192.904 221.516 191.415 221.363 190.201 221.755C189.283 222.051 188.049 223.265 188.024 224.101C187.922 227.155 188.269 230.225 188.483 233.896C190.028 233.188 191.695 232.382 193.399 231.673C194.021 231.418 194.745 231.413 195.423 231.296C195.346 232.066 195.504 232.984 195.137 233.575C194.673 234.33 193.873 234.993 193.067 235.395C191.338 236.257 189.518 236.925 187.575 237.741C189.227 245.721 190.558 253.758 185.082 261.233C187.137 260.32 189.232 259.489 190.492 257.964C192.889 255.058 195.515 252.014 196.8 248.567C203.714 229.96 210.261 211.215 216.901 192.501C219.267 185.831 221.133 179.05 220.985 171.875C220.868 166.118 219.812 160.529 218.283 154.941C211.205 158.337 203.403 157.46 199.66 152.442C201.613 152.789 203.031 153.049 204.448 153.294C206.769 153.702 209.089 154.359 211.419 154.436C213.943 154.512 215.396 153.375 216.309 151.427C212.276 153.049 208.354 152.906 204.443 151.081C203.306 150.55 202.042 150.158 200.797 150.015C197.605 149.643 195.714 151.815 196.382 154.925C198.233 163.558 200.048 172.196 201.955 180.814C202.944 185.271 202.485 189.411 199.813 193.205C197.544 196.428 194.367 198.161 190.329 198.671C190.329 200.221 190.497 201.603 190.263 202.914C190.13 203.643 189.324 204.255 188.825 204.923C188.32 204.26 187.448 203.628 187.381 202.924C187.188 200.828 187.31 198.702 187.31 196.57C186.821 196.377 186.275 196.295 185.908 195.994C184.006 194.444 182.4 194.464 180.37 196.111C178.274 197.815 175.868 197.351 173.604 195.51C169.03 191.787 169.468 183.098 174.445 179.901C175.092 179.483 175.995 179.458 176.78 179.248C176.918 179.463 177.051 179.677 177.188 179.891C176.194 181.298 174.934 182.599 174.287 184.149C173.629 185.735 173.15 187.631 173.374 189.289C173.583 190.808 174.832 192.185 175.903 194.138C178.397 188.034 181.196 187.412 187.83 190.834C187.636 189.462 187.504 188.218 187.28 186.984C184.761 172.869 182.359 158.724 179.631 144.65C178.473 138.674 175.169 133.876 169.713 130.801C169.56 130.714 169.31 130.791 168.922 130.791C169.463 131.469 169.871 131.984 170.284 132.504L170.32 132.52ZM36.1908 116.625C36.4712 116.896 36.7568 117.166 37.0372 117.436C37.9347 116.987 38.9188 116.656 39.7143 116.064C46.1444 111.312 50.1319 104.678 53.1558 97.5239C56.4906 89.6405 59.1932 81.4869 62.4108 73.5526C69.7842 55.3689 81.0381 40.3723 98.258 30.2861C119.058 18.099 148.735 17.9869 168.571 35.9105C169.463 36.7162 170.452 37.4198 171.396 38.1745C167.913 30.6277 162.589 24.7943 155.369 21.0056C140.953 13.4333 125.671 12.8469 110.318 17.0945C80.5638 25.3246 60.83 44.9768 49.8362 73.2467C44.3546 87.3459 40.6781 102.144 36.1857 116.625H36.1908ZM169.494 51.7281C169.218 51.2386 168.979 50.7185 168.657 50.2596C161.728 40.4742 152.314 35.0028 140.291 34.8244C124.927 34.5949 112.413 41.3105 101.945 52.0392C94.7906 59.3667 90.2421 68.4127 86.2392 77.7493C82.8993 85.5408 79.595 93.3629 75.8267 100.945C73.787 105.05 70.8091 108.686 68.1983 112.612C73.6749 110.063 77.8613 105.958 81.0534 101.073C84.9848 95.0559 88.4727 88.7278 91.8585 82.3793C99.5328 67.9741 109.711 56.0318 124.238 48.1026C137.481 40.8771 157.633 41.3462 169.483 51.7281H169.494ZM177.861 43.7785C178.004 43.7326 178.147 43.6816 178.29 43.6357C178.269 43.2584 178.279 42.876 178.218 42.5088C176.653 32.6929 171.962 24.6362 164.282 18.3948C155.45 11.2152 145.206 7.8446 133.881 7.70182C119.833 7.52845 106.473 10.6186 93.5719 16.09C80.8851 21.4747 69.6159 28.9144 60.213 38.9751C44.1557 56.1593 36.8027 77.0354 34.9466 100.114C34.7222 102.914 34.916 105.749 34.916 108.564L35.7676 108.609C35.9715 107.992 36.1857 107.375 36.3693 106.753C39.5868 96.1216 42.4475 85.3623 46.0934 74.8784C53.5076 53.574 66.4697 36.4 85.8568 24.5444C103.26 13.9024 122.015 9.17039 142.376 13.367C157.898 16.5642 169.56 24.8708 175.939 39.791C176.52 41.1473 177.209 42.4527 177.851 43.7785H177.861ZM125.574 67.454C125.212 67.6427 124.845 67.8211 124.488 68.0149C114.616 73.4557 107.686 81.6042 102.715 91.5782C99.3798 98.2633 95.9532 104.862 91.0325 110.619C79.2177 124.458 59.1473 130.572 41.8203 125.059C37.6339 123.729 33.7738 121.368 29.5466 119.384C29.9035 119.083 29.8117 119.124 29.8015 119.175C29.7607 119.425 29.7097 119.68 29.7148 119.93C29.8627 126.406 33.6922 130.174 39.2248 132.509C45.7976 135.288 52.7172 135.36 59.5042 133.856C78.6721 129.613 93.1945 118.798 103.092 101.873C105.137 98.3703 106.763 94.6071 108.375 90.8745C112.316 81.7419 117.91 73.8841 125.569 67.454H125.574ZM78.0551 201.766C77.7695 201.843 77.4788 201.924 77.1933 202.001C77.3616 203.495 77.4941 204.994 77.7032 206.483C79.8857 221.878 85.4132 235.926 94.454 248.613C105.162 263.64 118.435 276.296 131.591 289.064C131.872 289.34 132.254 289.508 132.81 289.87C133.774 288.06 134.656 286.392 135.538 284.735C123.04 272.982 110.878 261.106 101.287 246.971C91.7209 232.876 84.4698 217.528 78.0499 201.766H78.0551ZM27.0173 121.903C24.5697 128.486 26.5584 134.886 32.3919 139.245C38.2815 143.641 45.0633 144.962 52.1869 144.039C67.9026 142.014 80.7678 134.304 91.8177 123.326C94.2755 120.883 96.1928 117.9 98.3549 115.167C98.1815 115.024 98.0081 114.881 97.8348 114.739C97.4217 115.111 96.973 115.453 96.5957 115.85C89.6659 123.157 81.548 128.782 72.3491 132.826C62.9564 136.956 53.1456 138.552 43.0033 136.635C34.1307 134.957 28.2666 129.435 27.0173 121.903ZM88.9826 137.481C88.6817 137.303 88.386 137.124 88.0851 136.946C85.9792 139.352 83.8885 141.775 81.7672 144.166C78.2794 148.098 75.0465 152.299 71.2221 155.864C64.3433 162.283 56.0776 165.404 46.5421 164.634C39.7704 164.089 33.784 161.549 28.3584 157.444C30.0871 161.559 33.1568 164.481 36.7925 166.817C46.9297 173.323 62.4822 171.595 72.3542 162.997C78.31 157.806 82.0834 151.06 85.7752 144.268C86.9684 142.075 87.922 139.745 88.9826 137.481ZM19.8632 118.762C14.8354 122.245 11.5312 127.018 9.03256 132.397C0.705599 150.336 6.90618 170.672 23.5703 180.192C29.4599 183.557 35.6605 183.889 42.1925 182.165C27.461 179.544 16.2275 172.308 11.368 157.72C6.55943 143.274 10.343 130.317 19.8581 118.767L19.8632 118.762ZM85.0052 134.034C84.8319 133.845 84.6585 133.652 84.4902 133.463C76.9587 139.174 68.5145 143.08 59.4634 145.522C51.7178 147.613 43.865 147.929 36.2214 144.803C31.5556 142.896 27.9097 139.669 24.9165 135.599C25.0848 139.337 26.1505 142.647 28.7562 145.303C36.1041 152.789 45.1908 154.354 55.0628 152.712C63.5479 151.3 70.4165 146.563 76.9281 141.3C79.7378 139.026 82.3231 136.466 85.0052 134.039V134.034ZM153.268 7.94148C171.834 17.2424 183.119 30.9439 181.206 53.212C182.476 51.0041 183.873 48.9848 184.868 46.787C188.768 38.1388 185.775 26.166 178.162 18.507C171.304 11.6078 162.452 9.59872 153.268 7.94148ZM76.4233 145.915C68.2646 151.519 59.6521 155.731 49.4843 156.017C39.1432 156.302 30.5919 152.677 23.5856 144.176C26.8338 155.242 39.0208 162.88 50.754 161.972C62.115 161.095 69.8964 154.589 76.4233 145.915ZM52.2481 180.788C55.3688 187.642 59.9427 193.016 67.1377 195.52C69.2946 196.269 71.7984 196.397 74.1083 196.259C77.1729 196.071 78.5599 194.067 78.2896 191.048C77.9429 187.147 73.5729 181.686 69.8862 181.043C65.6487 180.304 61.3501 179.947 56.8884 179.401C57.8827 180.054 58.7139 180.85 59.7031 181.207C62.3139 182.145 65.0216 182.828 67.6425 183.746C69.0907 184.251 70.4471 185.026 71.8443 185.678C71.676 186.086 71.5128 186.489 71.3445 186.897C64.5371 186.499 58.1581 184.664 52.2481 180.788ZM20.5924 123.484C12.1736 132.892 9.73625 147.164 15.0547 159.749C18.5782 168.081 28.5726 176.23 35.1659 176.143C26.3851 170.544 20.8116 162.753 18.4456 152.687C16.1102 142.743 17.0893 133.029 20.5924 123.484ZM42.3608 53.7525C61.9518 29.5161 85.3877 11.2763 117.176 6.06498C87.2948 5.44288 52.6509 30.7756 42.3608 53.7525ZM100.379 88.7023C94.0104 95.6729 88.2891 102.694 81.7672 108.87C75.1179 115.167 66.7757 119.073 58.2651 122.719C60.3201 123.183 62.3088 123.474 64.1751 123.132C75.689 121.031 84.4188 114.55 91.4761 105.484C95.3566 100.497 97.952 94.8672 100.379 88.7023ZM218.395 141.056C218.339 138.389 216.804 136.558 213.714 135.65C209.206 134.33 205.596 136.364 202.22 138.945C200.777 140.046 199.548 141.418 198.115 142.769C197.881 139.327 200.833 135.38 204.78 133.59C210.389 131.041 215.794 132.229 220.802 137.348C221.76 134.86 222.887 132.586 223.504 130.179C224.422 126.589 222.831 125.223 219.236 126.176C216.37 126.941 213.479 127.614 210.649 128.476C208.727 129.057 206.651 129.567 205.045 130.684C199.574 134.498 196.274 139.791 195.362 146.461C195.25 147.277 195.459 148.133 195.545 149.311C204.372 138.552 208.14 137.236 218.405 141.061L218.395 141.056ZM54.349 211.771C54.1246 211.848 53.8798 211.883 53.681 212C43.9212 217.523 29.6077 215.504 20.8525 207.187C14.0196 200.69 10.1697 192.639 7.84955 183.7C7.11526 180.88 6.44727 178.04 5.74358 175.21C4.80533 181.518 5.5039 187.565 7.76284 193.429C13.2343 207.62 25.9618 216.977 40.0305 217.028C45.4305 217.049 50.4175 215.743 54.349 211.771ZM136.232 280.783C136.512 280.544 136.787 280.299 137.068 280.059C124.004 265.103 110.945 250.153 97.8807 235.197C107.477 253.141 121.143 267.576 136.232 280.783ZM56.6283 197.57C50.8152 204.015 43.9823 207.804 34.9466 206.539C26.2219 205.315 20.2966 199.961 15.1822 193.312C16.8751 200.747 25.6151 207.544 34.7018 208.487C44.2424 209.476 51.264 206.595 56.6283 197.57ZM119.598 78.2694C112.235 86.6269 110.858 96.6978 108.12 106.611C115.417 98.5437 116.069 88.1975 119.598 78.2694ZM14.4989 183.323C17.8541 191.262 23.8049 196.004 32.1216 197.743C39.7653 199.339 47.3529 197.055 50.6827 192.134C35.6707 200.66 24.2638 195.377 14.4938 183.318L14.4989 183.323ZM206.371 37.4708C207.299 42.7689 206.33 47.6335 202.914 52.2534C204.907 52.442 206.488 52.7327 208.054 52.6715C208.625 52.6511 209.543 51.8811 209.665 51.3151C210.751 46.2567 209.476 41.6828 206.366 37.4657L206.371 37.4708ZM41.2798 61.0494C35.0792 71.2478 31.6423 82.1753 32.5092 94.24C34.1409 82.8382 37.129 71.7883 41.2798 61.0494ZM221.908 103.541C222.846 95.2547 220.195 85.9589 215.973 81.3595C217.839 88.325 219.853 95.8564 221.908 103.541ZM212.495 53.5383C214.626 52.8908 214.79 49.6936 213.025 47.3122C212.857 49.2754 212.684 51.2794 212.495 53.5383Z" fill="#F5EABE"/>
</svg>
